<svg width="1920" height="1080" viewBox="0 0 1920 1080" fill="none" xmlns="http://www.w3.org/2000/svg">
<g clip-path="url(#clip0_556_6392)">
<rect width="1920" height="1080" fill="#2B2B2B"/>
<path d="M949 452.383C956.147 440.955 972.349 435.009 983.649 430.691C1002.52 423.478 1022.42 424.397 1040.9 430.178C1047.85 432.353 1058.2 434.017 1064.11 438.604C1066.3 440.304 1065.78 444.085 1064.76 446.61C1061.77 454.027 1036.21 453.965 1041.57 444.496C1046.52 435.744 1062.56 432.687 1070.77 430.838C1086.43 427.313 1102.8 426.666 1118.34 429.218C1125.02 430.315 1145.27 431.889 1145.92 442.205C1146.34 448.67 1138.26 448.202 1134.6 446.936C1131.76 445.956 1134.83 442.16 1136.28 440.705C1140.72 436.257 1146.48 433.154 1152.14 431.13C1163.7 426.996 1175.43 423.204 1187.42 421.3C1205.54 418.422 1223.26 418.928 1241.13 421.141C1245.12 421.636 1249.2 422.457 1253 423.769" stroke="white" stroke-width="3" stroke-linecap="round"/>
<path d="M-27.3691 518.835C-33.3794 516.34 -37.0021 514.842 -37.0021 512.679C-37.0021 510.267 -34.0381 508.852 -29.1804 508.852C-23.6641 508.852 -18.1478 510.267 -14.5251 512.679V496.706C-18.6418 494.959 -24.7344 493.878 -30.6624 493.878C-44.7414 493.878 -53.8805 501.448 -53.8805 512.679C-53.8805 524.16 -47.1291 528.153 -37.5784 531.896C-31.2388 534.392 -27.3691 535.557 -27.3691 538.052C-27.3691 540.215 -30.1684 541.131 -35.3554 541.131C-40.4601 541.131 -47.0468 539.467 -52.5632 536.389V553.027C-47.9524 555.023 -41.1188 556.271 -34.4498 556.271C-18.9711 556.271 -10.5731 549.45 -10.5731 538.052C-10.5731 526.905 -17.8184 522.828 -27.3691 518.835ZM20.8133 495.126H3.60562V555.023H20.8133V495.126ZM88.7422 526.406H72.3579V540.299C70.9582 540.465 69.3939 540.548 67.8295 540.548C57.9495 540.548 52.6802 533.144 52.6802 525.075C52.6802 517.171 58.1965 509.767 68.7352 509.767C76.8862 509.767 82.6495 511.93 86.4369 513.594V497.788C81.8262 495.625 75.5688 493.878 67.0062 493.878C48.3988 493.878 35.3902 507.937 35.3902 525.075C35.3902 542.462 48.2342 556.271 67.8295 556.271C75.1572 556.271 82.9789 554.608 88.7422 551.779V526.406ZM155.507 555.855H156.248V495.126H139.369V521.997L105.448 494.294H104.625V555.023H121.421V528.153L155.507 555.855Z" fill="white"/>
<path fill-rule="evenodd" clip-rule="evenodd" d="M-17.162 565.653C-1.97218 565.653 11.257 573.659 18.1393 585.488C25.0217 573.659 38.2509 565.653 53.4407 565.653C67.973 565.653 80.7109 572.981 87.813 583.973C94.9154 572.981 107.653 565.653 122.185 565.653C144.467 565.653 162.529 582.88 162.529 604.129C162.529 625.379 144.467 642.605 122.185 642.605C107.653 642.605 94.9154 635.277 87.813 624.285C80.7109 635.277 67.973 642.605 53.4407 642.605C38.2509 642.605 25.0217 634.599 18.1393 622.771C11.257 634.599 -1.97218 642.605 -17.162 642.605C-39.4437 642.605 -57.5065 625.379 -57.5065 604.129C-57.5065 582.88 -39.4437 565.653 -17.162 565.653Z" fill="white"/>
<path d="M1863.12 556.113C1855.11 552.786 1850.28 550.789 1850.28 547.905C1850.28 544.688 1854.23 542.803 1860.7 542.803C1868.05 542.803 1875.4 544.688 1880.22 547.905V526.608C1874.74 524.279 1866.63 522.837 1858.73 522.837C1839.98 522.837 1827.8 532.931 1827.8 547.905C1827.8 563.212 1836.8 568.537 1849.52 573.528C1857.96 576.856 1863.12 578.409 1863.12 581.736C1863.12 584.62 1859.39 585.84 1852.48 585.84C1845.68 585.84 1836.91 583.622 1829.56 579.518V601.702C1835.7 604.364 1844.8 606.028 1853.68 606.028C1874.3 606.028 1885.49 596.933 1885.49 581.736C1885.49 566.873 1875.84 561.438 1863.12 556.113ZM1927.29 524.501H1904.37V604.364H1927.29V524.501ZM2017.77 566.207H1995.95V584.731C1994.09 584.953 1992 585.064 1989.92 585.064C1976.76 585.064 1969.74 575.192 1969.74 564.433C1969.74 553.895 1977.09 544.023 1991.13 544.023C2001.98 544.023 2009.66 546.907 2014.7 549.125V528.05C2008.56 525.166 2000.23 522.837 1988.82 522.837C1964.04 522.837 1946.71 541.583 1946.71 564.433C1946.71 587.615 1963.82 606.028 1989.92 606.028C1999.68 606.028 2010.1 603.81 2017.77 600.038V566.207ZM2106.7 605.474H2107.69V524.501H2085.21V560.328L2040.03 523.392H2038.93V604.364H2061.3V568.537L2106.7 605.474Z" fill="white"/>
<path fill-rule="evenodd" clip-rule="evenodd" d="M1876.71 618.538C1896.94 618.538 1914.56 629.212 1923.73 644.984C1932.9 629.212 1950.52 618.538 1970.75 618.538C1990.11 618.538 2007.08 628.308 2016.54 642.965C2026 628.308 2042.96 618.538 2062.32 618.538C2092 618.538 2116.06 641.507 2116.06 669.839C2116.06 698.172 2092 721.141 2062.32 721.141C2042.96 721.141 2026 711.37 2016.54 696.714C2007.08 711.37 1990.11 721.141 1970.75 721.141C1950.52 721.141 1932.9 710.466 1923.73 694.695C1914.56 710.466 1896.94 721.141 1876.71 721.141C1847.03 721.141 1822.97 698.172 1822.97 669.839C1822.97 641.507 1847.03 618.538 1876.71 618.538Z" fill="white"/>
<path fill-rule="evenodd" clip-rule="evenodd" d="M429.001 923.588C436.176 943.206 457.819 953.265 477.343 946.056C481.317 944.588 484.898 942.518 488.019 939.987C488.214 940.619 488.426 941.25 488.656 941.879C495.83 961.497 517.474 971.556 536.998 964.347C556.522 957.138 566.533 935.39 559.358 915.772C552.183 896.154 530.54 886.094 511.016 893.304C507.042 894.771 503.462 896.841 500.341 899.373C500.146 898.74 499.934 898.109 499.704 897.481C492.529 877.863 470.886 867.803 451.362 875.012C431.838 882.222 421.827 903.969 429.001 923.588Z" fill="#BBE2B5"/>
<path fill-rule="evenodd" clip-rule="evenodd" d="M1429.5 221C1446.34 221 1460 207.345 1460 190.5C1460 173.655 1446.34 160 1429.5 160C1412.66 160 1399 173.655 1399 190.5C1399 193.823 1399.53 197.022 1400.51 200.017C1400.18 200.006 1399.84 200 1399.5 200C1382.66 200 1369 213.655 1369 230.5C1369 247.345 1382.66 261 1399.5 261C1416.34 261 1430 247.345 1430 230.5C1430 227.177 1429.47 223.978 1428.49 220.983C1428.82 220.994 1429.16 221 1429.5 221Z" fill="#BBE2B5"/>
<path d="M1524.53 944.16C1519.86 942.24 1517.04 941.088 1517.04 939.424C1517.04 937.568 1519.34 936.48 1523.12 936.48C1527.41 936.48 1531.7 937.568 1534.51 939.424V927.136C1531.31 925.792 1526.58 924.96 1521.97 924.96C1511.02 924.96 1503.92 930.784 1503.92 939.424C1503.92 948.256 1509.17 951.328 1516.59 954.208C1521.52 956.128 1524.53 957.024 1524.53 958.944C1524.53 960.608 1522.35 961.312 1518.32 961.312C1514.35 961.312 1509.23 960.032 1504.94 957.664V970.464C1508.53 972 1513.84 972.96 1519.02 972.96C1531.06 972.96 1537.58 967.712 1537.58 958.944C1537.58 950.368 1531.95 947.232 1524.53 944.16Z" fill="#BBE2B5"/>
<path d="M138.528 880.16C133.856 878.24 131.04 877.088 131.04 875.424C131.04 873.568 133.344 872.48 137.12 872.48C141.408 872.48 145.696 873.568 148.512 875.424V863.136C145.312 861.792 140.576 860.96 135.968 860.96C125.024 860.96 117.92 866.784 117.92 875.424C117.92 884.256 123.168 887.328 130.592 890.208C135.52 892.128 138.528 893.024 138.528 894.944C138.528 896.608 136.352 897.312 132.32 897.312C128.352 897.312 123.232 896.032 118.944 893.664V906.464C122.528 908 127.84 908.96 133.024 908.96C145.056 908.96 151.584 903.712 151.584 894.944C151.584 886.368 145.952 883.232 138.528 880.16Z" fill="#BBE2B5"/>
<path d="M289.344 596.92H275.968V643H289.344V596.92Z" fill="#BBE2B5"/>
<path d="M1816.33 949.709L1808.72 960.708L1846.61 986.933L1854.22 975.934L1816.33 949.709Z" fill="#BBE2B5"/>
<path d="M422.543 322.941L410.071 320.358L407.904 330.823C406.812 330.728 405.608 330.544 404.418 330.297C396.897 328.74 394.042 322.331 395.301 316.252C396.534 310.299 401.888 305.591 409.91 307.252C416.114 308.538 420.164 311.076 422.787 312.926L425.253 301.019C422.081 298.662 417.591 296.36 411.073 295.01C396.91 292.076 384.814 300.617 382.14 313.527C379.427 326.625 387.049 339.053 401.964 342.142C407.542 343.297 413.755 343.277 418.584 342.055L422.543 322.941Z" fill="#BBE2B5"/>
<path d="M1740.9 272.598L1728.43 270.015L1726.26 280.481C1725.17 280.385 1723.97 280.201 1722.78 279.955C1715.26 278.397 1712.4 271.989 1713.66 265.91C1714.89 259.956 1720.25 255.248 1728.27 256.91C1734.47 258.195 1738.52 260.733 1741.15 262.583L1743.61 250.676C1740.44 248.32 1735.95 246.017 1729.43 244.667C1715.27 241.734 1703.17 250.274 1700.5 263.184C1697.79 276.282 1705.41 288.71 1720.32 291.799C1725.9 292.955 1732.11 292.934 1736.94 291.712L1740.9 272.598Z" fill="#BBE2B5"/>
<path d="M150.745 302.874L151.309 302.991L160.785 257.242L147.937 254.581L143.745 274.823L122.247 248.606L121.621 248.476L112.145 294.225L124.929 296.873L129.122 276.631L150.745 302.874Z" fill="#BBE2B5"/>
<path d="M1620.42 590.434L1620.67 589.914L1578.51 569.769L1572.86 581.606L1591.51 590.52L1560.91 605.121L1560.63 605.699L1602.79 625.844L1608.42 614.064L1589.76 605.15L1620.42 590.434Z" fill="#BBE2B5"/>
</g>
<defs>
<clipPath id="clip0_556_6392">
<rect width="1920" height="1080" fill="white"/>
</clipPath>
</defs>
</svg>
