<svg width="420" height="587" viewBox="0 0 420 587" fill="none" xmlns="http://www.w3.org/2000/svg">
<g clip-path="url(#clip0_1185_609)">
<path d="M1.20344 1.09194L299.848 0C300.506 0 301.052 0.529914 301.052 1.20435C301.052 1.20435 301.132 27.2986 301.132 27.3146C301.132 28.0212 300.555 28.5993 299.848 28.5993L262.532 28.8723C191.414 29.1934 109.959 28.9044 38.6324 28.2781C38.6324 28.2781 1.31579 27.8606 1.29974 27.8606C1.01083 27.8606 0.786133 27.6198 0.786133 27.3307L1.20344 1.12406V1.12406V1.09194ZM1.42814 1.31676L1.84544 27.2986L1.31579 26.7687L38.6324 26.3512C123.152 25.6125 215.505 25.3074 299.848 26.014L298.564 27.2986L298.645 1.20435C306.028 4.56047 -0.0966248 0.24087 1.44419 1.31676H1.42814Z" fill="black"/>
<path d="M1.20382 41.9756C2.16683 42.923 301.004 39.2939 300.812 42.088L301.133 192.84C301.133 193.547 300.555 194.125 299.849 194.125C262.612 194.318 187.803 194.559 150.582 194.527C113.41 194.527 38.4722 194.366 1.30013 194.157C0.577869 194.157 -0.0159856 193.563 6.45159e-05 192.84C-0.112286 148.986 1.01122 86.392 1.20382 41.9756ZM1.42853 42.2004C2.10263 86.5847 2.26313 149.179 2.63229 192.84L1.31618 191.524L75.9493 191.235C142.429 191.09 233.369 191.17 299.849 191.556L298.565 192.84L298.886 42.088C304.84 44.6091 0.144516 41.4457 1.42853 42.2004H1.44458H1.42853Z" fill="black"/>
<path d="M247.525 215.579C253.624 215.225 265.886 214.663 271.985 214.455C280.123 214.053 288.774 213.555 296.574 215.771C285.002 218.71 271.632 216.719 259.755 216.542L247.525 215.9C247.332 215.9 247.316 215.579 247.525 215.579Z" fill="black"/>
<path d="M160.742 215.579C170.292 215.225 189.504 214.663 199.054 214.455C211.813 214.069 225.023 213.539 237.51 215.755C224.91 217.859 211.845 217.441 199.054 217.024C189.504 216.815 170.276 216.253 160.742 215.9C160.549 215.9 160.533 215.579 160.742 215.579V215.579Z" fill="black"/>
<path d="M42.5651 215.579C55.4533 215.225 81.3743 214.663 94.2626 214.455C111.484 214.069 129.14 213.523 146.105 215.755C129.043 217.891 111.516 217.441 94.2626 217.024C81.3904 216.815 55.4373 216.253 42.5651 215.9C42.3725 215.9 42.3564 215.579 42.5651 215.579V215.579Z" fill="black"/>
<path d="M2.873 215.579C6.85343 215.129 12.6475 214.728 16.7243 214.455C21.427 213.909 26.0173 213.844 30.5755 215.579C30.72 215.627 30.72 215.852 30.5755 215.9C26.0173 217.634 21.427 217.57 16.7403 217.024C12.6636 216.751 6.90158 216.349 2.9051 215.9C2.72855 215.9 2.7125 215.595 2.9051 215.579H2.873Z" fill="black"/>
<path d="M74.874 229.421C146.714 229.067 224.895 226.337 296.446 229.421C296.639 229.421 296.639 229.742 296.446 229.742C259.531 231.46 222.599 231.412 185.668 230.866C158.399 230.336 101.132 230.705 74.8901 229.421H74.874Z" fill="black"/>
<path d="M2.8727 229.421C10.4644 229.067 25.7441 228.505 33.3359 228.296C43.4795 227.911 54.0887 227.381 63.9274 229.613C53.9442 231.685 43.5116 231.315 33.3359 230.866C25.7441 230.657 10.4484 230.095 2.8727 229.742C2.6801 229.742 2.66405 229.421 2.8727 229.421V229.421Z" fill="black"/>
<path d="M192.12 243.279C205.137 242.925 231.283 242.363 244.283 242.155C261.666 241.769 279.465 241.223 296.591 243.455C279.369 245.591 261.682 245.141 244.283 244.724C231.299 244.515 205.105 243.953 192.12 243.6C191.928 243.6 191.912 243.279 192.12 243.279V243.279Z" fill="black"/>
<path d="M88.7252 243.279C99.7838 242.925 121.981 242.363 133.04 242.155C147.806 241.769 163.005 241.223 177.499 243.455C162.893 245.575 147.838 245.141 133.04 244.724C121.997 244.515 99.7517 243.953 88.7252 243.6C88.5326 243.6 88.5166 243.279 88.7252 243.279V243.279Z" fill="black"/>
<path d="M2.8727 243.279C12.3102 242.925 31.2814 242.363 40.7189 242.155C53.3183 241.769 66.3831 241.239 78.7096 243.455C66.2707 245.559 53.3664 245.141 40.7189 244.724C31.2975 244.515 12.2941 243.953 2.8727 243.6C2.6801 243.6 2.66405 243.279 2.8727 243.279V243.279Z" fill="black"/>
<path d="M175.508 257.137C190.595 256.783 220.898 256.221 235.985 256.013C256.08 255.611 276.768 255.113 296.606 257.313C276.688 259.433 256.112 259.015 235.985 258.582C220.93 258.373 190.563 257.811 175.508 257.458C175.315 257.458 175.299 257.137 175.508 257.137V257.137Z" fill="black"/>
<path d="M76.7194 257.137C87.5372 256.783 109.285 256.221 120.119 256.013C134.564 255.627 149.459 255.081 163.647 257.313C149.346 259.433 134.596 258.999 120.119 258.582C109.317 258.373 87.5372 257.811 76.7194 257.458C76.5268 257.458 76.5107 257.137 76.7194 257.137V257.137Z" fill="black"/>
<path d="M2.8727 257.137C10.8175 256.783 26.7714 256.221 34.7322 256.013C45.3414 255.627 56.416 255.097 66.7201 257.329C56.2715 259.417 45.3735 259.032 34.7322 258.582C26.8035 258.373 10.8175 257.811 2.8727 257.458C2.6801 257.458 2.66405 257.137 2.8727 257.137V257.137Z" fill="black"/>
<path d="M242.902 270.995C249.579 270.641 262.997 270.079 269.674 269.871C278.582 269.485 287.987 268.955 296.574 271.187C287.811 273.243 278.63 272.89 269.674 272.44C262.997 272.231 249.563 271.669 242.902 271.316C242.71 271.316 242.694 270.995 242.902 270.995V270.995Z" fill="black"/>
<path d="M116.427 270.995C130.937 270.641 160.084 270.079 174.593 269.871C193.917 269.469 213.836 268.971 232.887 271.171C213.739 273.275 193.934 272.873 174.593 272.44C160.116 272.231 130.921 271.669 116.427 271.316C116.235 271.316 116.219 270.995 116.427 270.995V270.995Z" fill="black"/>
<path d="M63.799 270.995C69.9141 270.545 78.8059 270.144 85.0333 269.871C92.0954 269.469 99.6871 268.971 106.396 271.187C99.4785 273.211 92.1596 272.89 85.0333 272.44L74.4081 271.958C70.8611 271.749 67.33 271.573 63.799 271.316C63.6224 271.316 63.5903 271.011 63.799 270.995V270.995Z" fill="black"/>
<path d="M22.2616 270.995C25.8568 270.545 31.0731 270.144 34.7326 269.871C38.9698 269.325 43.1107 269.26 47.1875 270.995C47.3319 271.043 47.3319 271.268 47.1875 271.316C43.0947 273.05 38.9698 272.986 34.7326 272.44C31.0571 272.167 25.8729 271.765 22.2777 271.316C22.1011 271.3 22.0851 271.011 22.2777 270.995H22.2616Z" fill="black"/>
<path d="M2.87265 270.995C7.70374 270.433 12.583 269.55 17.4141 269.55C19.0351 269.758 20.6402 270.112 22.2612 270.995C22.3896 271.059 22.3896 271.252 22.2612 271.316C19.1154 273.034 15.9054 273.002 12.5669 272.44C9.3248 272.167 6.09873 271.798 2.87265 271.316C2.6961 271.3 2.6961 271.011 2.87265 270.995V270.995Z" fill="black"/>
<path d="M106.717 112.823V133.699H101.533V87.2592H106.717V108.135H118.129V87.2592H123.297V133.731H118.129V112.856L106.717 112.823Z" fill="black"/>
<path d="M135.303 133.731V91.9802H126.748V87.2592H148.977V91.9802H140.423V133.731H135.303Z" fill="black"/>
<path d="M169.602 133.667H164.626L156.938 96.7333V133.779H152.428V87.2591H159.651L167.291 124.321L174.658 87.2109H181.88V133.683H176.969V96.364L169.602 133.667V133.667Z" fill="black"/>
<path d="M187.193 133.731V87.2592H192.361V129.01H205.683V133.731H187.193V133.731Z" fill="black"/>
<path d="M145.125 355.717L140.375 356.648L126.62 288.61L131.37 287.679L145.125 355.717Z" fill="white"/>
<path d="M145.27 355.813L140.439 356.889C140.31 356.921 140.182 356.825 140.15 356.696C136.41 339.803 128.995 305.776 125.384 288.867C125.239 288.193 125.656 287.534 126.314 287.374C127.903 286.988 129.508 286.603 131.113 286.266C131.9 286.089 132.67 286.619 132.815 287.406C137.999 309.919 141.883 333.075 145.286 355.813H145.27ZM144.997 355.636C139.315 333.043 133.922 310.835 129.958 287.984L131.659 289.124C130.07 289.397 128.481 289.654 126.876 289.895L127.887 288.386C131.13 305.375 137.517 339.611 140.615 356.632L140.326 356.439L144.997 355.652V355.636Z" fill="black"/>
<path d="M230.448 354.368H140.085V357.596H230.448V354.368Z" fill="white"/>
<path d="M139.973 354.255L230.448 353.115C231.138 353.115 231.7 353.677 231.7 354.368L231.732 357.596C231.732 358.302 231.154 358.88 230.448 358.88C208.7 359.603 184.544 359.25 162.684 358.8C155.14 358.559 147.597 358.334 140.053 357.949C139.877 357.949 139.732 357.788 139.748 357.612L139.973 354.272V354.255ZM140.198 354.48L140.422 357.596L140.085 357.258C169.714 355.942 200.819 355.492 230.448 356.311L229.164 357.596L229.196 354.368L230.448 355.62L140.198 354.48Z" fill="black"/>
<path d="M395.074 523.86H255.454V530.685H395.074V523.86Z" fill="white"/>
<path d="M255.342 523.748L395.074 522.624C395.748 522.624 396.31 523.17 396.31 523.844C396.31 523.86 396.358 530.669 396.358 530.685C396.358 531.391 395.78 531.969 395.074 531.969C383.438 532.226 371.801 532.307 360.165 532.355C326.604 532.435 288.999 532.098 255.454 531.086C255.229 531.086 255.053 530.909 255.053 530.685C255.117 528.308 255.245 525.98 255.342 523.748V523.748ZM255.566 523.972L255.855 530.685L255.454 530.283C267.09 529.898 278.727 529.705 290.363 529.448C324.213 529.031 361.417 528.677 395.074 529.384L393.79 530.669L393.838 523.844L395.074 525.08L255.566 523.956V523.972Z" fill="black"/>
<path d="M416.148 313.565C416.148 313.565 402.923 418.455 399.263 450.957C395.604 483.458 409.985 585.491 409.985 585.491H401.591L385.107 469.873H261.938L254.058 583.419H247.766L258.327 451.487V437.147C258.327 434.064 260.831 431.559 263.913 431.559H381.913L400.387 302.035C400.387 302.035 402.473 289.975 412.954 293.653C423.435 297.33 416.148 313.565 416.148 313.565V313.565Z" fill="black"/>
<path d="M416.309 313.613C415.394 325.078 397.658 458.07 399.215 466.405C399.52 483.362 400.965 500.672 402.602 517.517C404.865 540.191 407.625 562.817 410.787 585.378C410.852 585.812 410.547 586.229 410.097 586.293H409.985H401.591C401.173 586.293 400.836 585.988 400.772 585.587L384.08 470.002L385.091 470.885L261.922 471.11L263.158 469.953L255.518 583.515C255.47 584.302 254.796 584.896 254.026 584.913H247.734C246.867 584.913 246.161 584.158 246.225 583.291C246.289 583.323 256.674 450.909 256.69 451.471C256.69 448.548 256.69 441.065 256.69 438.239C256.257 433.229 260.012 429.503 265.02 429.937C293.589 429.937 352.702 430.258 381.865 430.37L380.693 431.382L393.132 346.74L399.456 304.444C399.761 300.927 401.013 297.137 403.789 294.6C406.598 291.967 410.996 292.175 414.222 293.893C421.3 297.78 418.732 307.575 416.244 313.597L416.309 313.613ZM416.004 313.532C418.764 306.949 420.851 295.547 411.542 293.653C405.876 292.031 401.863 296.848 400.9 302.003L400.547 304.636L394.801 347.013L383.085 431.735C383.004 432.329 382.491 432.747 381.913 432.747C353.665 432.843 294.921 433.164 267.267 433.181H265.068H263.961C263.672 433.181 263.431 433.213 263.158 433.261C261.328 433.582 259.9 435.316 259.932 437.179V438.287V442.703V451.519V451.647L249.275 583.58L247.766 581.958H254.058L252.565 583.339L260.686 469.809C260.735 469.15 261.28 468.653 261.922 468.653L385.091 468.877C385.605 468.877 386.038 469.263 386.102 469.761L402.377 585.41L401.558 584.704H409.953L409.15 585.635C406.101 563.025 403.436 540.384 401.27 517.662C399.697 500.785 398.348 483.41 398.108 466.421C396.117 463.097 415.249 321.995 415.939 313.532H416.004Z" fill="black"/>
<path d="M413.002 293.653C412.729 293.54 412.456 293.46 412.167 293.38C412.97 294.985 413.451 297.78 412.488 303.014C410.386 314.56 388.253 451.952 388.253 451.952H258.247L247.83 584.945H254.122L267.829 469.777H385.123L401.606 585.394H410.001C410.001 585.394 395.556 483.378 399.279 450.86C403.003 418.343 418.636 315.861 418.636 315.861C418.636 315.861 423.499 297.314 413.002 293.653V293.653Z" fill="white"/>
<path d="M412.954 293.813L412.135 293.54L412.328 293.315C413.756 296.463 413.163 300.028 412.633 303.303C406.1 343.673 395.267 411.02 388.686 452.033C388.654 453.157 258.696 452.386 258.263 452.803L259.097 452.033L248.921 585.041L247.846 583.885H254.138L253.062 584.832L266.561 469.632C266.641 468.974 267.203 468.492 267.845 468.492L385.139 468.235C385.925 468.235 386.567 468.813 386.68 469.568L403.211 585.186L401.622 583.805H410.017L408.428 585.635C405.282 563.186 402.714 540.705 400.579 518.143C399.054 501.379 397.69 484.1 397.546 467.223C397.53 461.523 397.738 455.806 398.332 450.138C401.221 427.657 404.688 405.304 408.075 382.935L418.395 315.845C419.968 308.538 421.364 297.282 412.954 293.829V293.813ZM413.066 293.508C421.717 296.912 420.433 308.587 418.892 315.909C415.586 338.294 412.264 360.679 409.182 383.096C406.1 405.513 402.955 427.93 400.387 450.379C399.616 458.488 399.793 467.48 400.13 475.638C402.056 512.298 406.726 548.814 411.59 585.169C411.734 586.117 410.964 587 410.001 587H401.606C400.804 587 400.13 586.406 400.017 585.619L383.582 470.002L385.123 471.334L267.829 471.077L269.113 469.937L255.197 585.073C255.133 585.619 254.667 586.037 254.122 586.037H247.83C247.204 586.037 246.707 585.507 246.755 584.88L257.412 451.904C257.444 451.471 257.813 451.133 258.247 451.133L388.253 451.551L387.835 451.904C394.593 410.715 405.651 343.866 412.28 303.255C412.809 300.044 413.403 296.527 412.023 293.46C411.959 293.348 412.087 293.187 412.216 293.235L413.066 293.508V293.508Z" fill="black"/>
<path d="M287.378 322.718L221.781 326.443L192.521 343.368L186.743 353.276L191.269 354.095L201.59 349.55C201.59 349.55 213.146 347.495 216.452 346.259C219.758 345.022 228.795 335.098 228.795 335.098L289.785 345.006L287.378 322.718V322.718Z" fill="white"/>
<path d="M287.281 322.846C287.281 322.846 220.561 327.471 222.214 327.182L193.083 344.332L193.484 343.93L187.787 353.886L186.968 352.104L191.494 352.891L190.772 352.971L201.044 348.33C206.1 347.142 211.541 346.516 216.372 344.637C220.545 341.794 224.092 337.684 227.575 334.006C227.96 333.589 228.522 333.412 229.035 333.492C243.753 335.741 259.98 338.647 274.714 341.281C279.786 342.164 284.842 343.175 289.898 344.107L288.838 345.118C288.212 337.892 287.811 330.522 287.233 322.846H287.281ZM287.49 322.605C288.517 329.799 289.721 337.282 290.7 344.91C290.764 345.408 290.411 345.857 289.914 345.921C284.713 345.279 279.513 344.54 274.329 343.786C259.483 341.618 243.224 339.225 228.522 336.704L229.982 336.19C227.19 339.161 224.381 342.035 221.283 344.701C219.791 345.986 217.672 347.656 215.65 348.057C211.557 349.133 205.105 350.369 202.119 350.771L191.751 355.219C191.526 355.315 191.269 355.347 191.029 355.299L186.503 354.448C185.7 354.32 185.251 353.356 185.684 352.666L191.542 342.806C191.639 342.629 191.783 342.501 191.944 342.405L221.331 325.704C221.588 325.399 287.121 322.702 287.458 322.589L287.49 322.605Z" fill="black"/>
<path d="M192.762 525.546C192.762 525.546 181.206 545.779 179.553 545.779C177.899 545.779 164.514 548.75 153.872 543.387C143.231 538.023 135.302 533.896 131.996 538.842C130.343 541.155 128.963 543.644 127.871 546.277C127.871 546.277 137.774 560.312 146.858 565.258C155.943 570.203 159.827 567.65 169.329 573.014C178.83 578.377 179.649 582.504 187.481 580.866C195.314 579.228 199.872 554.033 201.926 551.143C203.981 548.252 211.781 532.146 211.781 532.146L192.762 525.546Z" fill="white"/>
<path d="M192.826 525.707C192.906 525.691 192.858 525.707 192.826 525.771L192.746 525.915L192.585 526.205C191.317 528.485 189.07 532.339 187.738 534.635C185.282 538.473 183.276 542.776 180.034 546.052C179.858 546.213 179.44 546.229 179.232 546.245L177.964 546.422C172.795 547.192 167.515 547.465 162.299 546.678C153.632 545.603 146.602 539.34 138.143 537.686C136.57 537.429 134.933 537.461 133.826 538.296C132.799 539.083 131.884 540.737 131.033 542.134C130.198 543.595 129.46 545.105 128.818 546.662L128.706 545.683C136.362 555.848 145.59 566.43 159.041 567.795C164.385 568.662 169.569 571.103 174.047 574.122C178.253 576.851 181.735 580.802 187.016 579.244C188.669 578.939 190.29 576.884 191.51 574.78C195.218 568.1 197.127 560.199 199.679 552.829C199.984 551.978 200.546 550.581 201.124 549.874C204.655 543.981 207.753 537.814 210.979 531.728L211.492 532.965C206.212 530.942 198.203 527.81 192.826 525.675V525.707ZM192.714 525.402L202.28 528.276C205.522 529.239 208.796 530.251 212.086 531.311C212.552 531.455 212.792 531.953 212.648 532.403C209.871 538.473 207.159 544.575 203.933 550.452C203.243 551.592 202.681 552.459 202.328 553.76C199.455 562.608 197.978 572.419 191.863 579.983C188.942 583.483 182.698 583.66 178.878 581.348C174.24 578.345 170.629 575.005 165.717 572.821C160.983 570.46 155.638 570.38 150.646 568.405C148.094 567.409 145.639 566.125 143.408 564.503C136.923 559.637 131.771 553.375 127.037 546.871C126.828 546.582 126.796 546.213 126.924 545.892C128.497 542.6 129.926 539.228 132.75 536.771C138.4 533.35 147.661 539.725 152.941 542.102C160.485 546.357 169.425 546.598 177.835 545.538C178.076 545.522 179.28 545.362 179.504 545.378C179.649 545.33 179.456 545.41 179.585 545.346C184.464 539.998 188.749 531.568 192.714 525.434V525.402Z" fill="black"/>
<path d="M181.543 543.692C180.596 544.976 179.938 545.779 179.553 545.779C177.948 545.779 164.514 548.75 153.873 543.387C143.232 538.023 135.303 533.896 131.996 538.842C130.343 541.155 128.963 543.644 127.872 546.277C127.872 546.277 137.775 560.312 146.859 565.258C155.943 570.203 159.827 567.65 169.329 573.014C178.831 578.377 179.649 582.504 187.482 580.866C194.432 579.389 198.717 559.493 201.124 552.941C193.998 551.11 186.358 546.759 181.543 543.692V543.692Z" fill="black"/>
<path d="M181.575 543.852C181.222 544.479 180.387 545.731 179.617 545.972C178.012 546.132 176.439 546.422 174.834 546.582C167.162 547.417 159.009 546.919 152.091 543.13C149.78 542.006 147.469 540.898 145.141 539.886C141.626 538.569 137.502 536.337 133.922 538.104C131.499 540.32 130.086 543.676 128.754 546.646L128.658 545.731C136.185 555.575 145.157 566.141 158.206 567.634C164.787 568.582 171.03 571.729 176.343 575.663C179.649 578.184 182.651 580.384 186.808 579.324C193.581 577.446 197.32 559.011 200.129 552.588L200.867 553.985C193.837 551.817 187.45 548.188 181.575 543.852V543.852ZM181.511 543.531C187.738 546.855 194.512 550.34 201.381 551.897C202.007 552.026 202.344 552.716 202.119 553.294C200.9 557.309 199.872 561.548 198.556 565.691C196.807 570.814 195.186 576.659 191.029 580.721C189.103 582.52 186.406 582.889 183.806 582.857C177.819 582.472 174.112 577.237 169.201 574.716C161.93 569.786 152.492 570.637 145.206 565.675C141.386 563.266 138.24 560.167 135.287 556.972C132.333 553.76 129.637 550.372 127.085 546.807C126.892 546.534 126.86 546.181 126.989 545.892C132.012 534.892 134.548 533.527 145.703 538.617C148.046 539.709 150.342 540.898 152.621 542.086C159.282 545.972 167.226 546.662 174.786 546.052C176.375 545.94 177.98 545.683 179.569 545.57C180.404 545.169 180.805 544.222 181.511 543.531V543.531Z" fill="black"/>
<path d="M187.385 580.866C187.626 580.802 187.851 580.737 188.075 580.641C188.156 580.609 188.236 580.577 188.3 580.545L188.749 580.32L189.006 580.159L189.407 579.886L189.664 579.678L190.05 579.34L190.29 579.099C190.435 578.971 190.563 578.826 190.691 578.682L190.916 578.425C191.045 578.264 191.189 578.104 191.317 577.927L191.51 577.686L191.976 577.012L192.088 576.851C192.409 576.37 192.714 575.84 193.019 575.246C184.994 575.246 179.537 570.187 170.886 567.217C160.164 563.507 159.554 566.494 151.722 561.114C143.889 555.735 143.055 552.459 143.055 552.459L150.004 541.476C141.225 537.14 134.821 534.474 131.916 538.826C130.263 541.138 128.882 543.627 127.791 546.261C127.791 546.261 137.694 560.296 146.778 565.241C155.863 570.187 159.747 567.634 169.249 572.997C178.75 578.361 179.553 582.504 187.385 580.866Z" fill="white"/>
<path d="M187.353 580.705C189.985 579.999 191.59 577.461 192.874 575.165L193.019 575.406C185.78 575.438 179.649 571.022 173.101 568.597C170.918 567.779 168.687 567.104 166.44 566.574C161.882 565.563 156.681 565.659 152.701 562.801C148.656 560.071 144.194 557.325 142.06 552.716C141.979 552.459 142.011 552.202 142.14 551.994L142.188 551.913L149.025 540.849L149.491 542.519C145.334 540.849 135.672 534.795 132.751 540.095C131.338 542.214 130.134 544.478 129.187 546.855L129.027 545.394C134.307 552.17 140.037 559.204 147.356 563.732C152.444 566.96 158.254 567.297 163.888 569.416C169.618 571.568 174.256 575.631 179.023 579.212C181.415 581.059 184.464 581.332 187.353 580.721V580.705ZM187.417 581.026C184.48 581.765 181.222 581.508 178.654 579.774C173.743 576.514 168.863 573.029 163.198 571.408C160.453 570.557 157.564 570.332 154.547 569.705C145.221 568.052 137.951 561.291 132.109 554.322C130.134 552.01 128.305 549.633 126.539 547.112C126.234 546.678 126.202 546.132 126.395 545.667C127.374 543.419 128.545 541.251 129.926 539.227C134.548 531.038 144.563 537.734 150.55 540.432C151.16 540.737 151.369 541.524 151 542.086L143.937 552.989L144.066 552.186C146.056 556.104 150.085 558.834 153.632 561.307C157.548 564.182 162.235 564.037 166.761 565.273C176.054 567.233 183.373 574.844 193.035 575.069C193.147 575.069 193.244 575.197 193.179 575.31C191.863 577.67 190.178 580.288 187.433 581.01L187.417 581.026Z" fill="black"/>
<path d="M205.137 422.341L168.446 513.984L212.183 538.762C212.183 538.762 258.728 433.084 259.21 431.013C259.691 428.941 267.877 426.886 267.877 426.886L301.261 431.446C301.261 431.446 250.928 409.158 236.082 405.85C221.235 402.542 211.316 405.015 205.137 422.341V422.341Z" fill="white"/>
<path d="M205.297 422.405C194.897 447.986 179.328 488.291 169.152 514.273L168.831 513.342L212.696 537.895L211.284 538.36L236.627 479.925C240.816 470.194 251.457 445.449 255.438 436.023C255.903 434.915 257.236 431.751 257.669 430.643C257.829 430.081 258.166 429.535 258.552 429.15C261.184 426.918 264.346 426.243 267.492 425.28C278.839 426.42 290.154 428.379 301.486 429.824L300.619 432.907C283.927 425.521 267.203 418.054 250.222 411.342C231.603 403.907 213.419 398.672 205.297 422.389V422.405ZM204.992 422.293C212.696 398.206 231.732 402.815 250.832 409.672C268.15 415.741 285.083 422.711 301.919 429.985C303.588 430.724 302.882 433.341 301.052 433.068C289.93 431.559 278.791 430.113 267.668 428.524L268.294 428.491C265.662 429.246 262.805 429.969 260.831 431.446C260.831 431.478 260.734 431.543 260.751 431.526C260.767 431.51 260.783 431.478 260.783 431.446C260.783 431.446 260.783 431.398 260.783 431.414L260.734 431.542C260.237 432.94 258.937 435.91 258.343 437.291C246.803 463.675 224.991 512.411 213.13 539.179C212.905 539.725 212.231 539.95 211.717 539.645L168.109 514.643C167.772 514.466 167.644 514.048 167.788 513.711C178.51 487.794 194.768 448.034 205.024 422.293H204.992Z" fill="black"/>
<path d="M243.224 493.623L263.864 513.021C263.864 513.021 256.85 530.364 248.601 541.508C240.351 552.652 239.516 559.172 243.224 561.725C246.931 564.278 254.363 563.796 259.274 560.488C264.185 557.18 292.273 529.528 295.579 524.583C297.778 521.098 297.088 516.538 293.974 513.856C292.739 513.021 265.517 480.407 265.517 480.407L243.224 493.623V493.623Z" fill="white"/>
<path d="M243.384 493.639L264.185 512.668C264.33 512.796 264.362 513.021 264.298 513.197C262.179 518.448 259.836 523.571 257.268 528.597C254.683 533.607 251.827 538.569 248.472 543.114C245.134 548.092 236.755 560.312 247.012 562.078C255.935 563.7 261.794 557.036 267.636 551.448C271.697 547.562 275.661 543.595 279.593 539.597C283.51 535.582 287.426 531.536 291.133 527.393C292.401 525.883 293.878 524.518 294.664 522.816C296.125 519.685 294.408 516.12 292.289 514.53C282.916 503.868 273.558 492.145 264.715 481.081L266.031 481.306C259.627 484.807 249.949 490.122 243.368 493.655L243.384 493.639ZM243.063 493.607L253.801 486.654C257.444 484.261 261.216 481.9 264.988 479.524C265.421 479.251 265.999 479.363 266.304 479.749C275.789 490.395 285.452 502.021 295.05 512.603C298.34 515.333 299.447 520.247 297.65 524.117C296.687 526.253 294.937 527.858 293.493 529.528C289.625 533.704 285.612 537.654 281.584 541.604C277.555 545.554 273.462 549.424 269.337 553.278C262.821 559.396 256.465 566.028 246.61 564.133C234.38 561.853 242.582 548.075 247.108 542.134C253.849 533.174 258.937 523.089 263.415 512.828L263.527 513.342L243.047 493.575L243.063 493.607Z" fill="black"/>
<path d="M295.627 524.583C297.826 521.098 297.136 516.538 294.022 513.856C293.444 513.454 287.04 505.955 280.444 498.151C274.409 505.458 263.511 509.536 261.103 510.387L263.912 513.021C263.912 513.021 256.898 530.363 248.648 541.508C240.399 552.652 239.564 559.172 243.272 561.725C246.979 564.278 254.411 563.796 259.322 560.488C264.233 557.18 292.321 529.528 295.627 524.583Z" fill="black"/>
<path d="M295.499 524.502C297.65 521.21 296.943 516.489 293.926 513.984C292.69 512.796 291.534 511.431 290.379 510.163C288.18 507.69 282.29 501.074 280.026 498.521H280.893C278.405 501.588 275.276 504.077 271.969 506.132C268.647 508.203 265.1 509.873 261.424 511.238L261.745 509.713L264.586 512.314C264.875 512.587 264.955 513.005 264.827 513.358C260.863 522.961 256.481 532.323 250.639 540.946C247.75 545.057 244.829 549.216 243.304 553.937C240.062 563.042 250.751 562.608 256.256 560.296C258.519 559.38 260.237 557.742 262.082 556.153C265.918 552.829 269.706 549.36 273.542 545.956C281.07 539.035 289.015 532.387 295.531 524.502H295.499ZM295.772 524.679C293.155 528.324 288.613 532.917 285.644 536.353C277.763 544.912 270.091 553.648 261.168 561.163C255.839 565.29 246.369 567.088 241.121 561.885C236.274 555.077 244.78 544.848 248.52 539.517C254.346 531.263 258.953 522.013 263.029 512.7L263.254 513.743L260.477 511.078C260.108 510.741 260.092 510.146 260.445 509.793C267.523 506.983 274.906 503.659 280.026 497.798C280.251 497.541 280.668 497.557 280.877 497.814L287.41 505.875C289.32 508.203 292.096 511.592 294.119 513.743C297.264 516.361 298.003 521.259 295.772 524.695V524.679Z" fill="black"/>
<path d="M294.504 514.305C294.295 517.148 293.252 519.862 291.503 522.11C286.559 528.292 258.905 553.888 258.905 553.888L246.065 545.024C240.158 554.049 239.853 559.477 243.144 561.725C246.867 564.214 254.282 563.796 259.194 560.488C264.105 557.18 292.193 529.528 295.499 524.583C297.586 521.339 297.184 517.083 294.504 514.305V514.305Z" fill="white"/>
<path d="M294.568 514.466C294.712 519.026 291.422 522.993 288.405 526.092C285.323 529.384 282.145 532.579 278.951 535.759C272.563 542.118 266.095 548.38 259.563 554.579C259.242 554.884 258.76 554.916 258.407 554.675C258.391 554.675 245.471 545.956 245.438 545.94L247.011 545.635C244.925 548.991 242.903 552.604 242.405 556.249C241.699 560.472 245.294 561.789 248.825 561.869C257.235 562.367 262.387 555.446 268.117 550.388C273.992 544.8 279.962 539.276 285.74 533.575C288.629 530.749 291.615 527.923 294.247 524.952C297.056 522.077 296.831 517.597 294.584 514.466H294.568ZM294.456 514.161C297.971 516.843 298.243 522.591 295.483 525.931C292.947 529.255 290.234 532.258 287.49 535.309C279.015 544.254 270.701 553.15 261.152 561.034C255.839 564.968 248.039 566.381 242.18 562.688C236.531 557.646 242.084 549.36 245.134 544.43C245.471 543.9 246.193 543.756 246.706 544.125L259.45 553.134L258.279 553.214C264.923 547.16 271.584 541.09 278.149 534.94C281.423 531.857 284.697 528.774 287.875 525.578C291.342 522.334 293.894 519.01 294.472 514.161H294.456Z" fill="black"/>
<path d="M282.836 512.202C282.948 514.594 281.102 516.634 278.711 516.746C276.319 516.859 274.281 515.012 274.168 512.619C274.056 510.227 275.902 508.187 278.293 508.075C278.358 508.075 278.422 508.075 278.502 508.075C280.829 508.027 282.771 509.873 282.836 512.202V512.202Z" fill="white"/>
<path d="M296.044 363.184L293.974 370.201C293.974 370.201 231.683 371.02 204.446 378.455C177.209 385.89 169.794 390.017 171.848 405.288C173.903 420.559 216.002 508.525 216.002 508.525C224.477 506.148 232.743 503.113 240.752 499.452C250.221 494.827 259.209 489.255 267.572 482.832L236.21 422.968C236.21 422.968 272.114 430.402 312.127 434.112C352.14 437.821 369.073 433.694 375.669 421.731C382.266 409.768 371.127 361.883 371.127 361.883L296.462 359.394L296.044 363.184V363.184Z" fill="white"/>
<path d="M296.205 363.216L294.135 370.249C273.398 370.988 252.356 371.646 231.651 374.119C216.163 375.757 200.787 379.065 186.262 384.717C165.525 392.024 172.186 406.845 178.413 422.662C182.281 432.313 186.406 441.868 190.659 451.374C199.15 470.387 207.978 489.271 216.982 508.043L215.73 507.481C224.91 504.831 234.043 501.523 242.582 497.252C251.12 492.884 259.242 487.713 266.833 481.836L266.496 483.378L234.926 423.626C234.54 422.919 234.813 422.02 235.536 421.651C235.857 421.49 236.194 421.442 236.515 421.506C253.239 424.782 270.156 427.4 287.073 429.648C308.179 432.121 329.461 435.188 350.599 433.052C362.829 431.832 376.279 426.918 376.295 412.578C376.921 395.717 373.663 378.583 370.357 362.027L371.111 362.654C352.477 361.819 315.096 360.213 296.462 359.538L296.655 359.378L296.205 363.184V363.216ZM295.884 363.151L296.269 359.378C296.269 359.282 296.366 359.217 296.462 359.217C315.048 359.795 352.557 360.695 371.143 361.08C371.512 361.08 371.817 361.353 371.898 361.706C374.979 376.062 383.068 409.961 376.729 422.711C366.071 441.547 330.633 436.906 312.207 435.734C286.575 433.309 261.152 429.519 235.905 424.413L237.494 422.293L268.647 482.27C268.92 482.8 268.775 483.458 268.31 483.811C260.574 489.721 252.292 494.939 243.593 499.307C234.829 503.627 225.649 506.887 216.275 509.552C215.778 509.697 215.248 509.44 215.024 508.99C206.116 490.138 197.417 471.206 189.006 452.113C184.817 442.574 180.708 432.988 176.92 423.257C174.304 415.934 170.741 408.451 170.87 400.486C171.03 385.392 189.472 382.726 200.771 379.033C210.818 376.126 221.203 374.697 231.555 373.589C252.292 371.47 273.109 370.49 293.942 370.056L293.798 370.169L295.868 363.168L295.884 363.151Z" fill="black"/>
<path d="M208.459 403.377C207.432 403.024 206.453 402.526 205.586 401.883C205.153 401.562 204.495 401.402 204.399 400.824C204.27 400.278 204.27 399.635 204.768 398.752C205.297 398.254 206.838 398.832 207.031 398.977C207.48 399.218 207.416 399.828 207.609 400.278C207.946 401.065 208.395 402.317 208.7 403.152C208.748 403.281 208.604 403.425 208.475 403.377H208.459Z" fill="black"/>
<path d="M236.145 423.176C231.716 421.217 227.462 418.937 223.289 416.48C218.94 414.184 214.959 411.326 212.327 406.99C212.247 406.861 212.375 406.685 212.52 406.733C217.286 408.323 221.01 411.165 224.718 414.344C228.489 417.299 232.39 420.093 236.29 422.887C236.434 422.984 236.29 423.257 236.129 423.16L236.145 423.176Z" fill="black"/>
<path d="M240.912 457.364C241.635 457.219 242.341 457.123 243.063 457.155C243.4 457.155 243.866 456.914 244.026 457.268C244.187 457.492 244.476 458.568 244.074 459.259C243.416 459.917 242.983 460.094 242.614 460.158C242.229 460.238 242.148 459.724 241.924 459.467C241.699 459.211 241.506 458.938 241.314 458.632C241.217 458.327 240.447 457.589 240.912 457.364Z" fill="black"/>
<path d="M183.196 408.74C190.579 417.652 198.765 425.858 207.656 433.245C216.725 440.455 226.066 446.99 235.182 454.233C235.327 454.329 235.182 454.586 235.022 454.506C224.044 450.266 214.397 443.281 205.955 435.172C197.368 427.271 189.632 418.455 182.939 408.933C182.827 408.788 183.068 408.58 183.196 408.74V408.74Z" fill="black"/>
<path d="M356.04 390.418C357.099 390.659 358.127 391.012 359.09 391.494C359.555 391.735 360.229 391.767 360.438 392.297C360.614 392.554 360.935 394.192 360.293 394.625C359.314 394.898 358.737 394.802 358.239 394.625C357.725 394.465 357.661 393.838 357.388 393.405C357.116 392.987 356.843 392.538 356.586 392.088C356.345 391.606 356.072 391.173 355.832 390.659C355.767 390.53 355.896 390.37 356.024 390.402L356.04 390.418Z" fill="black"/>
<path d="M298.115 370.859C307.2 371.229 316.204 372.642 325.047 374.729C333.971 376.64 342.831 379.964 349.765 386.098C349.893 386.211 349.765 386.436 349.604 386.371C341.017 383.353 332.912 380.141 324.357 377.202C315.786 374.537 306.975 372.513 298.083 371.165C297.891 371.148 297.907 370.827 298.115 370.843V370.859Z" fill="black"/>
<path d="M339.38 377.877C346.827 377.668 354.724 377.957 361.626 381.121C363.857 382.421 366.007 384.188 367.131 386.596C367.163 386.677 367.131 386.789 367.051 386.821C360.213 384.075 353.906 380.88 346.619 379.499C344.227 378.953 341.804 378.535 339.364 378.198C339.188 378.198 339.171 377.893 339.364 377.877H339.38Z" fill="black"/>
<path d="M308.644 246.988C308.644 246.988 294.616 288.739 292.594 301.473C290.571 314.207 291.775 369.992 291.775 369.992C291.775 369.992 324.774 379.9 343.344 377.845C361.914 375.789 385.074 372.064 385.074 372.064C385.074 372.064 380.95 298.197 377.242 272.584C373.534 246.972 364.867 232.118 356.618 225.936C351.128 221.905 345.334 218.308 339.283 215.193L308.644 246.988Z" fill="#2D7AF6"/>
<path d="M301.967 239.425C296.478 256.751 290.555 274.19 286.623 291.982C284.713 304.845 285.468 317.996 285.323 331.003C285.403 341.441 285.596 351.895 285.837 362.333L285.211 361.514C303.973 366.492 323.555 371.47 343.023 368.29C354.355 366.749 366.842 365.03 378.061 363.135L376.969 364.484C375.14 335.853 373.117 307.173 370.373 278.622C368.222 258.646 365.333 234.254 349.877 219.962C344.372 215.643 338.272 211.757 332.013 208.401L333.152 208.208C324.213 217.152 311.132 230.384 301.951 239.409L301.967 239.425ZM301.694 239.264L316.653 223.078C321.628 217.65 326.716 212.287 331.772 206.891C332.077 206.57 332.543 206.506 332.912 206.698C342.381 211.741 352.878 217.008 358.849 226.353C368.944 241.705 371.865 260.429 373.647 278.317C375.108 292.641 376.103 306.981 377.05 321.32C377.981 335.66 378.799 350 379.537 364.356C379.586 365.03 379.104 365.608 378.446 365.705C364.129 367.84 348.85 370.153 334.388 371.454C317.439 371.951 300.876 367.68 284.681 363.2C284.312 363.087 284.071 362.75 284.055 362.381C283.895 351.927 283.814 341.473 283.863 331.019C284.167 317.98 283.558 304.749 285.644 291.806C289.833 273.933 295.9 256.703 301.662 239.264H301.694Z" fill="black"/>
<path d="M229.196 174.952C230.095 180.187 231.908 185.213 234.573 189.805C238.697 196.405 244.476 199.296 242.822 205.863C241.169 212.431 241.217 217.008 246.032 217.409L250.992 217.827C250.992 217.827 260.895 234.752 268.326 234.752C275.757 234.752 296.847 215.819 296.847 215.819C296.847 215.819 285.708 163.39 285.708 161.736C285.708 160.082 226.708 167.934 226.708 167.934L229.196 174.952V174.952Z" fill="white"/>
<path d="M229.356 174.92C230.56 181.455 232.887 187.975 237.221 193.097C239.307 195.683 242.004 198.043 243.111 201.319C244.459 205.655 241.313 210.151 242.742 214.454C243.4 216.654 245.775 216.815 247.701 216.879L251.04 217.12C251.265 217.136 251.473 217.265 251.586 217.441C254.202 221.584 257.107 225.631 260.509 229.115C262.789 231.315 265.292 233.692 268.454 233.788C274.601 232.552 279.593 228.04 284.665 224.41C288.549 221.375 292.337 218.196 295.996 214.904L295.611 216.092C292.321 200.709 286.687 177.2 284.071 161.913V161.768C284.071 161.688 284.071 161.929 284.087 162.073C284.167 162.571 284.569 163.037 285.05 163.197C285.082 163.197 285.05 163.197 285.082 163.197C285.082 163.197 284.761 163.165 284.52 163.165C265.597 164.257 245.631 166.248 226.756 168.207L226.965 167.87L229.372 174.936L229.356 174.92ZM229.051 175L226.483 168.031C226.435 167.886 226.531 167.71 226.692 167.694C245.695 164.996 264.426 161.078 283.638 159.889C284.44 159.938 285.178 159.793 286.061 160.05C286.783 160.195 287.409 161.094 287.361 161.736C287.393 161.929 287.538 162.667 287.57 162.892C290.443 177.216 295.146 201.014 298.083 215.562C298.179 216.012 298.019 216.462 297.698 216.751C293.926 220.043 290.058 223.174 286.077 226.177C280.925 229.806 275.869 233.981 269.61 235.555C261.842 236.775 253.961 223.913 250.382 218.196L250.944 218.549L247.605 218.228C246.578 218.068 245.101 218.1 244.122 217.618C242.918 217.136 241.972 216.012 241.618 214.808C240.19 210.247 243.512 205.912 242.437 201.496C241.458 198.3 238.874 195.972 236.884 193.354C232.695 188.087 230.223 181.552 229.051 174.984V175Z" fill="black"/>
<path d="M253.753 196.164C254.539 197.77 254.266 199.585 253.127 200.131C251.987 200.677 250.446 199.777 249.66 198.123C248.873 196.47 249.146 194.703 250.286 194.173C251.425 193.643 252.966 194.527 253.753 196.164Z" fill="black"/>
<path d="M243.497 191.476C242.518 188.232 246.001 185.02 249.13 185.149C250.158 185.325 251.137 185.775 251.923 186.755C252.003 186.851 251.987 186.995 251.891 187.06C251.377 187.477 250.912 187.718 250.479 187.895C249.098 188.633 248.376 188.376 247.012 188.457C245.439 188.698 244.219 189.822 243.818 191.443C243.802 191.62 243.545 191.636 243.497 191.46V191.476Z" fill="black"/>
<path d="M255.855 219.143C257.877 219.272 260.221 217.971 261.505 216.526C262.163 215.739 262.195 214.824 262.644 214.037C263.078 213.202 263.431 212.19 264.105 210.874C264.153 210.777 264.265 210.729 264.378 210.777C269.193 215.964 261.039 221.6 256 219.641C255.663 219.561 255.213 218.903 255.855 219.127V219.143Z" fill="black"/>
<path d="M312.897 155.538C311.533 138.821 290.732 145.229 280.989 150.287L280.716 149.773L241.522 160.917C240.864 164.177 242.357 167.501 245.23 169.171C253.431 175.289 263.126 179.079 273.301 180.171C276.222 197.642 280.299 223.752 280.299 233.564C280.299 248.835 274.521 254.616 274.521 254.616C274.521 254.616 300.924 246.362 316.251 231.91C325.159 223.608 332.928 214.182 339.364 203.84C339.364 203.84 314.614 175.771 312.897 155.538V155.538Z" fill="white"/>
<path d="M312.753 155.554C311.405 139.062 290.7 145.389 281.15 150.56C280.781 150.769 280.604 150.126 280.46 149.917C282.466 150.014 241.265 161.592 241.747 161.64L242.277 161.062C241.699 163.936 243.127 167.035 245.663 168.448C253.752 174.422 263.447 178.18 273.43 179.159C273.895 179.207 274.249 179.561 274.313 179.994C276.463 192.503 278.534 205.029 280.187 217.65C281.696 230.256 283.863 244.82 275.581 255.659L274.088 253.186C280.62 250.97 287.089 248.241 293.284 245.141C305.915 239.152 316.717 230.4 325.769 219.818C330.392 214.615 334.517 209.011 338.385 203.214L338.497 204.611C332.575 197.337 327.198 189.709 322.543 181.584C318.001 173.491 313.668 164.916 312.753 155.554V155.554ZM313.074 155.522C314.229 164.739 318.595 173.234 323.474 181.022C328.418 188.81 334.132 196.197 340.263 203.053C340.616 203.455 340.648 204.017 340.375 204.45C333.056 216.606 323.988 227.847 312.945 236.872C307.344 241.336 301.132 244.917 294.728 248.048C288.341 251.179 281.792 253.829 274.987 256.029C273.59 256.51 272.403 254.68 273.43 253.62C281.006 243.552 279.015 229.742 277.763 217.955C276.271 205.398 274.329 192.857 272.322 180.331L273.205 181.166C262.917 180.026 252.982 176.06 244.748 169.829C242.004 168.384 239.885 164.177 240.8 160.757C240.848 160.468 241.073 160.243 241.33 160.179L280.653 149.468C281.006 149.339 281.15 149.95 281.278 150.142L280.861 150.014C283.782 148.553 286.816 147.332 289.929 146.385C299.094 143.414 312.319 142.852 313.058 155.522H313.074Z" fill="black"/>
<path d="M273.221 180.203C272.579 179.416 272.001 178.597 271.536 177.714C271.311 177.28 270.798 176.927 270.926 176.413C271.038 175.915 271.279 175.385 272.05 174.743C272.788 174.47 273.911 175.482 274.072 175.739C274.409 176.14 274.072 176.686 274.056 177.168C274.024 177.65 273.96 178.147 273.879 178.629C273.767 179.127 273.703 179.625 273.542 180.123C273.51 180.251 273.318 180.299 273.221 180.187V180.203Z" fill="black"/>
<path d="M293.108 218.132C293.701 218.887 294.215 219.689 294.616 220.541C294.825 220.958 295.306 221.327 295.13 221.809C294.985 222.275 294.713 222.757 293.894 223.302C293.124 223.495 292.096 222.516 291.952 222.259C291.647 221.873 292 221.392 292.064 220.942C292.129 220.492 292.225 220.043 292.337 219.593C292.482 219.127 292.578 218.678 292.771 218.196C292.819 218.068 292.995 218.035 293.092 218.132H293.108Z" fill="black"/>
<path d="M282.9 174.679C284.794 179.962 287.169 187.75 288.806 193.21C290.877 199.424 292.434 205.751 292.016 212.399C292.016 212.56 291.776 212.624 291.695 212.463C288.694 206.538 287.33 200.291 286.302 193.82C285.355 189.083 283.478 179.512 282.579 174.759C282.547 174.582 282.82 174.486 282.884 174.679H282.9Z" fill="black"/>
<path d="M302.384 180.074C304.166 183.43 305.851 186.819 307.44 190.271C309.318 193.692 310.698 197.192 310.393 201.255C310.393 201.399 310.201 201.48 310.088 201.367C307.167 198.509 305.883 194.992 305.033 191.17C303.941 187.541 302.962 183.88 302.079 180.187C302.031 180.01 302.304 179.914 302.384 180.074Z" fill="black"/>
<path d="M298.95 170.986C299.72 171.708 300.426 172.479 301.036 173.33C301.341 173.731 301.903 174.053 301.855 174.583C301.823 175.112 301.678 175.691 301.02 176.461C300.346 176.863 299.03 175.947 298.853 175.723C298.452 175.353 298.677 174.743 298.629 174.245C298.58 173.748 298.564 173.234 298.564 172.704C298.597 172.174 298.564 171.66 298.645 171.114C298.645 170.97 298.837 170.905 298.95 171.002V170.986Z" fill="black"/>
<path d="M309.029 171.435C310.073 172.768 311.036 174.165 311.902 175.61C312.336 176.317 313.026 176.927 313.122 177.778C313.218 178.629 313.218 179.512 312.689 180.604C312.641 180.717 312.512 180.765 312.384 180.717C311.26 180.283 310.634 179.641 310.121 178.966C309.591 178.292 309.687 177.377 309.511 176.558C309.142 174.92 308.885 173.25 308.724 171.564C308.708 171.403 308.933 171.323 309.029 171.451V171.435Z" fill="black"/>
<path d="M225.151 174.31C225.151 174.31 197.545 188.97 206.742 188.97C215.938 188.97 261.97 169.942 263.8 169.942C265.63 169.942 233.128 173.073 225.151 174.31V174.31Z" fill="#757575"/>
<path d="M225.216 174.47C220.69 177.039 216.115 179.753 211.798 182.692C209.663 184.249 206.758 186 205.538 188.119C207.175 188.553 209.278 187.863 211.043 187.493C216.083 186.225 221.043 184.442 225.986 182.676C236.082 179.095 249.034 173.699 259.097 169.813C259.659 169.605 261.361 168.962 261.922 168.77C262.5 168.561 263.383 168.288 264.041 168.304C263.559 165.975 265.919 171.74 264.795 171.371C264.25 171.724 263.287 171.708 262.645 171.805C250.222 173.105 237.655 173.828 225.232 174.486L225.216 174.47ZM225.119 174.165C230.336 172.945 235.504 172.158 240.736 171.339C248.167 170.167 255.743 169.283 263.222 168.384L263.431 168.352H263.495C263.319 168.384 263.142 168.464 262.982 168.577C261.874 168.208 264.185 173.94 263.704 171.628C263.896 171.628 263.784 171.628 263.752 171.676C262.869 171.997 261.12 172.559 260.221 172.896C244.428 178.372 227.623 185.117 211.396 189.083C209.647 189.324 204.094 190.914 204.238 187.927C204.367 187.397 204.607 187.092 204.832 186.787C206.71 184.699 208.973 183.398 211.252 181.905C215.762 179.111 220.369 176.622 225.103 174.197L225.119 174.165Z" fill="black"/>
<path d="M225.151 174.31C225.151 174.31 208.636 179.545 216.003 161.736C223.37 143.928 273.526 117.978 294.391 117.978C315.257 117.978 330.681 149.131 327.615 158.958C324.55 168.786 317.793 170.006 314.775 170.006C311.758 170.006 225.151 174.31 225.151 174.31Z" fill="#757575"/>
<path d="M225.183 174.47C211.268 178.228 212.295 167.019 217.672 158.187C222.663 150.881 229.87 145.437 237.028 140.411C251.65 130.584 267.572 122.587 284.745 118.203C297.89 114.526 308.419 118.877 317.135 128.946C323.426 136.284 331.708 150.126 328.899 160.05C326.46 167.694 320.874 172.094 312.673 171.788C283.718 173.394 254.202 173.314 225.183 174.486V174.47ZM225.119 174.149C254.009 172.543 283.59 169.621 312.657 168.432L314.839 168.336C320.264 168.416 324.357 164.016 325.914 159.038C328.322 150.287 320.682 137.264 315.176 130.616C309.735 124.257 302.272 118.845 293.653 119.102C279.24 120.066 265.662 126.344 252.79 132.671C240.126 139.432 226.853 146.786 218.057 158.444C212.696 166.762 211.46 177.907 225.119 174.149V174.149Z" fill="black"/>
<path d="M233.144 168.625C248.6 168.336 264.073 167.421 279.417 165.59C294.68 163.262 309.896 160.901 325.111 158.203C325.288 158.155 325.4 158.428 325.224 158.509C310.827 164.643 295.178 166.875 279.673 168.159C264.185 169.412 248.649 169.589 233.128 168.962C232.935 168.962 232.919 168.641 233.128 168.641L233.144 168.625Z" fill="black"/>
<path d="M321.5 166.489C315.674 167.019 307.2 167.549 301.277 167.918C294.552 168.416 287.282 169.026 280.894 166.907C287.458 164.803 294.44 164.996 301.245 165.365L311.373 165.686C314.743 165.847 318.13 165.975 321.5 166.168C321.677 166.168 321.709 166.473 321.5 166.489V166.489Z" fill="black"/>
<path d="M296.044 328.498L290.684 333.492C290.684 333.492 223.835 324.821 219.293 326.058C214.75 327.294 198.668 331.838 198.668 331.838L185.828 332.657L175.524 350H178.814L186.245 339.675H190.916L183.067 348.764L179.681 353.677L191.221 354.095L192.906 352.666L199.487 347.077L197.416 353.276H199.888L205.666 343.368L213.515 339.241L221.764 333.46C221.764 333.46 305.931 362.766 307.986 363.971C310.04 365.175 314.598 368.515 318.306 365.207C322.014 361.899 331.916 334.247 331.916 334.247L296.044 328.498V328.498Z" fill="white"/>
<path d="M296.093 328.659L290.828 333.653C290.828 333.653 290.716 333.717 290.668 333.701C275.244 331.822 259.803 330.024 244.363 328.434C236.643 327.695 228.875 326.812 221.203 326.604C219.469 326.507 217.575 327.31 215.714 327.792L210.112 329.398L198.909 332.609C198.909 332.609 198.797 332.641 198.749 332.641L185.908 333.525L186.599 333.107L176.375 350.498L175.556 349.053H178.846L178.06 349.438L185.443 339.081C185.636 338.808 185.957 338.647 186.278 338.647L190.948 338.631C191.831 338.599 192.329 339.739 191.751 340.365L183.95 349.486C184.303 349.037 180.58 354.4 180.66 354.32L179.761 352.537L191.301 352.907L190.483 353.196L198.716 346.146C199.23 345.696 200.017 345.761 200.466 346.275C200.755 346.612 200.835 347.077 200.691 347.479L198.652 353.693L197.449 352.023H199.92L198.813 352.65L204.527 342.71C204.655 342.485 204.848 342.308 205.072 342.196L212.889 338.021C212.118 338.519 221.139 332.176 220.946 332.288C221.347 331.999 221.845 331.951 222.262 332.111C249.194 341.393 280.428 351.959 306.862 361.979C310.088 363.135 314.197 367.07 317.279 364.356C320.633 360.325 322.511 354.593 324.758 349.791C326.973 344.572 329.076 339.273 331.098 333.974L331.804 335.162C320.007 333.139 308.146 330.843 296.125 328.675L296.093 328.659ZM295.996 328.354C307.89 330.024 319.943 331.565 332.061 333.364C332.543 333.444 332.88 333.894 332.815 334.376C329.156 344.556 325.882 354.978 320.553 364.452C318.242 368.676 313.154 368.724 309.462 366.476C308.178 365.769 307.199 365.078 305.819 364.661C281.054 355.925 246.129 343.753 221.283 334.857L222.599 334.681L214.317 340.413C214.317 340.413 214.221 340.478 214.157 340.51L206.276 344.588L206.822 344.075L200.98 353.95C200.739 354.352 200.305 354.593 199.872 354.593H197.4C196.55 354.609 195.908 353.725 196.197 352.923L198.299 346.74L200.273 348.089L191.975 355.074C191.735 355.267 191.446 355.363 191.157 355.363C191.157 355.363 179.617 354.898 179.601 354.898C178.734 354.898 178.204 353.806 178.718 353.115L182.121 348.218L182.185 348.137L190.082 339.081L190.884 340.815H186.213L187.048 340.365L179.569 350.658C179.376 350.915 179.087 351.06 178.782 351.06H175.492C174.77 351.06 174.288 350.209 174.673 349.599L185.058 332.304C185.202 332.047 185.475 331.903 185.748 331.887L198.588 331.132C197.689 331.309 209.903 328.049 209.663 328.081L215.28 326.539C217.174 326.09 218.924 325.303 221.139 325.383C228.987 325.688 236.675 326.668 244.411 327.503C259.851 329.301 275.26 331.292 290.668 333.364L290.507 333.412L295.964 328.418L295.996 328.354Z" fill="black"/>
<path d="M184.753 352.987C188.589 349.165 191.927 344.974 194.736 340.397L194.431 341.152C194.704 339.594 195.378 338.406 196.469 337.346C197.497 336.367 199.037 335.821 200.402 336.158C200.498 336.174 200.562 336.27 200.53 336.367C198.829 337.668 197.978 339.53 197.737 341.57C197.256 343.175 195.683 344.203 194.608 345.424C193.629 346.419 192.649 347.399 191.606 348.314C189.52 350.145 187.289 351.782 184.945 353.212C184.801 353.308 184.608 353.083 184.753 352.955V352.987Z" fill="black"/>
<path d="M199.358 347.045C199.407 344.605 199.278 341.827 199.808 339.498L200.129 338.888C200.947 338.101 202.151 338.021 203.339 338.133C203.467 338.149 203.547 338.262 203.547 338.39C203.451 339.53 203.066 340.381 202.408 341.184L202.97 340.333C202.296 342.613 200.835 344.99 199.695 347.142C199.615 347.286 199.374 347.222 199.391 347.062L199.358 347.045Z" fill="black"/>
<path d="M190.788 339.562C191.35 337.475 192.361 335.355 193.709 333.701C194.624 333.027 195.892 333.075 197.015 333.525C197.128 333.573 197.176 333.701 197.16 333.814C196.582 335.901 196.133 336.174 194.72 336.929C193.452 337.812 192.281 338.727 191.061 339.739C190.948 339.851 190.74 339.723 190.788 339.562V339.562Z" fill="black"/>
<path d="M260.734 347.077C283.076 354.914 306.927 363.36 308.082 364.003C310.153 365.239 314.695 368.547 318.403 365.239C322.11 361.931 332.013 334.279 332.013 334.279L296.125 328.498L290.684 333.492C290.684 333.492 278.39 331.887 264.009 330.168L260.734 347.077V347.077Z" fill="#757575"/>
<path d="M260.879 346.997C275.677 351.879 291.294 357.146 306.012 362.301C309.318 363.152 312.913 366.909 316.444 365.384C318.146 364.645 318.916 362.959 319.767 361.385C320.682 359.667 321.484 357.852 322.271 356.054C325.384 348.78 328.145 341.313 330.761 333.83L331.804 335.596C321.372 334.071 306.108 331.855 295.868 330.12L297.232 329.703C295.387 331.357 293.573 333.059 291.695 334.697C291.342 335.002 290.893 335.114 290.475 335.05C282.659 333.942 271.584 332.352 263.896 331.084L264.923 330.345C263.8 335.066 262.099 342.196 260.879 346.997V346.997ZM260.606 347.158L261.794 338.727C262.179 335.853 262.644 332.93 263.11 329.992C263.19 329.494 263.656 329.173 264.137 329.253C271.857 329.879 283.076 331.132 290.909 331.935L289.641 332.336C291.406 330.634 293.236 328.98 295.034 327.294C295.419 326.941 295.916 326.796 296.398 326.877C306.622 328.386 321.917 331.18 332.238 332.963C333.056 333.075 333.586 333.958 333.281 334.729C330.44 342.196 327.551 349.631 324.245 356.921C322.319 360.454 321.099 365.255 317.199 367.118C312.785 368.932 309.35 365.159 305.45 363.826C292.53 358.912 273.767 352.007 260.622 347.142L260.606 347.158Z" fill="black"/>
<path d="M314.904 273.403L297.088 333.252C297.088 333.252 298.693 341.521 315.241 346.098C324.357 348.764 333.795 350.161 343.296 350.225L356.505 275.925" fill="#2D7AF6"/>
<path d="M308.243 265.808L291.181 325.881V325.431C291.406 326.186 291.936 327.15 292.481 327.936C300.619 338.631 323.731 340.927 336.491 341.056L334.966 342.324C335.993 336.126 337.021 329.912 338.144 323.729C340.327 311.702 342.895 298.631 345.431 286.699C346.715 280.533 348.079 274.399 349.524 268.265C349.556 268.072 349.877 268.12 349.845 268.329C347.566 286.892 344.58 305.857 341.402 324.323C340.327 330.522 339.155 336.704 337.984 342.87C337.855 343.625 337.197 344.155 336.459 344.139C327.744 343.962 319.077 342.678 310.682 340.365C302.513 338.005 292.465 334.713 289.32 325.801C289.271 325.64 289.288 325.496 289.336 325.351C289.657 325.431 307.617 264.604 308.227 265.824L308.243 265.808Z" fill="black"/>
<path d="M159.618 361.594H145.173V576.45H159.618V361.594Z" fill="black"/>
<path d="M145.061 361.482L159.618 361.353C160.34 361.193 160.645 576.289 160.902 576.45C160.902 577.157 160.324 577.735 159.618 577.735L145.173 577.879C144.387 577.879 143.729 577.237 143.745 576.45C143.52 558.465 143.536 540.432 143.504 522.415C143.584 474.626 144.274 409.254 145.061 361.482V361.482ZM145.285 361.706C146.056 409.623 146.762 475.14 146.842 523.057C146.81 540.849 146.842 558.642 146.602 576.45L145.173 575.021L159.618 575.165L158.334 576.45C158.559 576.53 158.928 360.55 159.618 361.835L145.285 361.706V361.706Z" fill="black"/>
<path d="M258.086 357.804H43.0781V366.684H258.086V357.804Z" fill="#757575"/>
<path d="M42.966 357.692L258.086 356.552C258.776 356.552 259.322 357.098 259.338 357.788C259.338 357.788 259.37 366.668 259.37 366.684C259.37 367.391 258.808 367.969 258.102 367.969L231.202 368.242L204.318 368.354C152.653 368.419 94.7277 368.114 43.0623 367.022C42.8697 367.022 42.7092 366.877 42.7252 366.684L42.9499 357.692H42.966ZM43.1907 357.917L43.4154 366.684L43.0783 366.347C60.9903 365.93 78.9183 365.721 96.8302 365.48C148.464 365.014 206.677 364.725 258.086 365.4L256.802 366.684L256.834 357.804L258.086 359.057L43.1907 357.917V357.917Z" fill="black"/>
<path d="M229.806 585.234H75.0181C75.0181 580.336 78.9985 576.37 83.8938 576.354H220.93C225.825 576.354 229.79 580.336 229.806 585.234Z" fill="#757575"/>
<path d="M229.934 585.346L75.034 586.486C74.3438 586.486 73.766 585.924 73.7821 585.234C73.6697 580.24 77.7144 575.631 82.7059 575.085C87.9543 574.844 105.642 574.892 111.211 574.796L131.819 574.684C154.835 574.684 191.269 575.117 214.269 575.599C215.633 575.663 220.593 575.695 222.053 575.872C226.595 576.498 230.287 580.641 229.934 585.33V585.346ZM229.709 585.121C229.42 581.043 226.13 577.253 221.925 576.964C220.464 576.867 215.858 577.092 214.269 577.108L193.661 577.51C170.292 577.831 134.323 578.2 111.211 577.927L90.6026 577.767L85.4505 577.735C83.7492 577.702 82.417 577.686 80.9244 578.329C78.1959 579.453 76.2859 582.279 76.3019 585.266L75.05 584.013L229.725 585.153L229.709 585.121Z" fill="black"/>
<path d="M105.225 359.378H76.9765L72.7393 306.515H109.462L105.225 359.378Z" fill="white"/>
<path d="M105.337 359.506L76.9765 359.972C76.6716 359.972 76.4308 359.747 76.3987 359.458C76.3987 359.458 71.5195 306.627 71.5034 306.627C71.4392 305.905 72.017 305.279 72.7393 305.295C84.9855 305.166 97.2318 304.893 109.478 304.861C110.441 304.861 111.211 305.696 111.131 306.66C110.73 311.156 110.393 315.668 109.911 320.132C108.74 331.839 106.862 347.832 105.353 359.506H105.337ZM105.112 359.266C105.514 347.399 106.204 331.18 106.91 319.345C107.135 315.01 107.504 310.706 107.809 306.387L109.462 308.185C97.2157 308.153 84.9855 307.88 72.7393 307.752L73.9751 306.419L77.5704 359.33L76.9926 358.784L105.128 359.25L105.112 359.266Z" fill="black"/>
<path d="M110.971 301.296H70.1714V313.34H110.971V301.296Z" fill="white"/>
<path d="M70.059 301.184C82.225 300.927 98.9332 300.413 110.971 300.236C111.565 300.236 112.046 300.718 112.03 301.296L112.255 313.34C112.255 314.062 111.677 314.624 110.971 314.624C104.182 315.01 97.3764 315.074 90.5711 315.042C83.7177 314.945 76.8804 314.801 70.043 314.383C69.4973 314.351 69.08 313.886 69.1121 313.34C69.2405 311.204 69.3528 309.1 69.5294 307.061L70.043 301.184H70.059ZM70.2837 301.409C70.6047 304.845 71.006 310 71.2147 313.34L70.1714 312.296C76.9606 311.878 83.7659 311.734 90.5711 311.654C97.3764 311.621 104.182 311.686 110.971 312.071L109.687 313.356L109.912 301.312L110.971 302.372C99.3505 302.163 82.1287 301.698 70.2837 301.425V301.409Z" fill="black"/>
<path d="M106.396 344.717L107.953 325.367H74.248L75.8049 344.717H106.396Z" fill="white"/>
<path d="M106.3 344.605L107.327 325.319L107.969 326.009C96.7342 326.298 85.4991 326.443 74.264 326.684L75.5801 325.255C76.1739 330.955 77.0567 338.952 77.474 344.572L75.8208 343.047C85.6435 343.111 95.4181 343.786 106.3 344.588V344.605ZM106.525 344.845C97.0231 345.648 86.3979 346.323 75.8208 346.387C74.9541 346.387 74.2319 345.713 74.1677 344.861C73.8627 341.634 73.6862 338.406 73.4936 335.179L72.9479 325.479C72.8676 324.709 73.4936 324.034 74.264 324.05C85.5151 324.291 96.7502 324.436 108.001 324.725C108.371 324.725 108.643 325.062 108.611 325.415L106.525 344.829V344.845Z" fill="black"/>
</g>
<defs>
<clipPath id="clip0_1185_609">
<rect width="420" height="587" fill="white"/>
</clipPath>
</defs>
</svg>
