<svg width="1920" height="863" viewBox="0 0 1920 863" fill="none" xmlns="http://www.w3.org/2000/svg">
<path opacity="0.1" d="M747.402 321.753L747.402 881.247L-505 1564L-505 -361L747.402 321.753Z" fill="#4363AE"/>
<g style="mix-blend-mode:multiply" opacity="0.18">
<path d="M756.108 321.753L756.108 881.247L-383.594 1564L-383.594 -361L756.108 321.753Z" fill="#4363AE"/>
</g>
<g style="mix-blend-mode:multiply" opacity="0.26">
<path d="M764.813 321.753L764.813 881.247L-262.144 1564L-262.144 -361L764.813 321.753Z" fill="#4363AE"/>
</g>
<g style="mix-blend-mode:multiply" opacity="0.35">
<path d="M773.519 321.753L773.519 881.247L-140.738 1564L-140.738 -361L773.519 321.753Z" fill="#4363AE"/>
</g>
<g style="mix-blend-mode:multiply" opacity="0.43">
<path d="M782.225 321.753L782.225 881.247L-19.3317 1564L-19.3317 -361L782.225 321.753Z" fill="#4363AE"/>
</g>
<g style="mix-blend-mode:multiply" opacity="0.51">
<path d="M790.93 321.753L790.93 881.247L102.074 1564L102.075 -361L790.93 321.753Z" fill="#4363AE"/>
</g>
<g style="mix-blend-mode:multiply" opacity="0.59">
<path d="M799.636 321.753L799.636 881.247L223.524 1564L223.524 -361L799.636 321.753Z" fill="#4363AE"/>
</g>
<g style="mix-blend-mode:multiply" opacity="0.67">
<path d="M808.298 321.753L808.298 881.247L344.93 1564L344.93 -361L808.298 321.753Z" fill="#4363AE"/>
</g>
<g style="mix-blend-mode:multiply" opacity="0.75">
<path d="M817.004 321.753L817.004 881.247L466.336 1564L466.337 -361L817.004 321.753Z" fill="#4363AE"/>
</g>
<g style="mix-blend-mode:multiply" opacity="0.84">
<path d="M825.71 321.753L825.71 881.247L587.743 1564L587.743 -361L825.71 321.753Z" fill="#4363AE"/>
</g>
<g style="mix-blend-mode:multiply" opacity="0.92">
<path d="M834.415 321.753L834.415 881.247L709.192 1564L709.192 -361L834.415 321.753Z" fill="#4363AE"/>
</g>
<g style="mix-blend-mode:multiply">
<path d="M843.121 321.753L843.121 881.247L830.598 1564L830.598 -361L843.121 321.753Z" fill="#4363AE"/>
</g>
<path opacity="0.1" d="M918.598 881.247L918.598 321.753L2171 -361L2171 1564L918.598 881.247Z" fill="#E73863"/>
<g style="mix-blend-mode:multiply" opacity="0.18">
<path d="M910.278 881.247L910.278 321.753L2049.98 -361L2049.98 1564L910.278 881.247Z" fill="#E73863"/>
</g>
<g style="mix-blend-mode:multiply" opacity="0.26">
<path d="M901.958 881.247L901.958 321.753L1928.92 -361L1928.92 1564L901.958 881.247Z" fill="#E73863"/>
</g>
<g style="mix-blend-mode:multiply" opacity="0.35">
<path d="M893.639 881.247L893.639 321.753L1807.9 -361L1807.9 1564L893.639 881.247Z" fill="#E73863"/>
<path d="M893.639 881.247L893.639 321.753L1807.9 -361L1807.9 1564L893.639 881.247Z" fill="black" fill-opacity="0.2"/>
</g>
<g style="mix-blend-mode:multiply" opacity="0.43">
<path d="M885.319 881.247L885.319 321.753L1686.88 -361L1686.88 1564L885.319 881.247Z" fill="#E73863"/>
</g>
<g style="mix-blend-mode:multiply" opacity="0.51">
<path d="M877 881.247L877 321.753L1565.81 -361L1565.81 1564L877 881.247Z" fill="#E73863"/>
</g>
<g style="mix-blend-mode:multiply" opacity="0.59">
<path d="M868.68 881.247L868.68 321.753L1444.79 -361L1444.79 1564L868.68 881.247Z" fill="#E73863"/>
</g>
<g style="mix-blend-mode:multiply" opacity="0.67">
<path d="M860.36 881.247L860.36 321.753L1323.77 -361L1323.77 1564L860.36 881.247Z" fill="#E73863"/>
</g>
<g style="mix-blend-mode:multiply" opacity="0.75">
<path d="M852.041 881.247L852.041 321.753L1202.71 -361L1202.71 1564L852.041 881.247Z" fill="#E73863"/>
</g>
<g style="mix-blend-mode:multiply" opacity="0.84">
<path d="M843.721 881.247L843.721 321.753L1081.69 -361L1081.69 1564L843.721 881.247Z" fill="#E73863"/>
</g>
<g style="mix-blend-mode:multiply" opacity="0.92">
<path d="M835.401 881.247L835.402 321.753L960.667 -361L960.667 1564L835.401 881.247Z" fill="#E73863"/>
</g>
<g style="mix-blend-mode:multiply">
<path d="M827.082 881.247L827.082 321.753L839.604 -361L839.604 1564L827.082 881.247Z" fill="#E73863"/>
</g>
</svg>
