<svg width="496" height="608" viewBox="0 0 496 608" fill="none" xmlns="http://www.w3.org/2000/svg">
<g clip-path="url(#clip0_1185_743)">
<path d="M405.805 209.9L472.894 606.666H485.971L418.899 209.9H405.805Z" fill="#757575"/>
<path d="M405.934 209.997C405.019 210.173 476.793 610.861 472.91 605.412L485.987 605.38L484.72 606.875C468.722 516.199 449.467 400.527 434.512 309.288C429.505 276.673 423.055 241.615 418.915 210.206L405.95 209.997H405.934ZM405.693 209.788L418.915 209.579C419.059 209.579 419.188 209.691 419.22 209.836C435.811 301.171 455.323 415.123 470.872 507.181C475.028 531.855 483.26 581.718 487.255 606.441C487.399 607.212 486.774 607.952 485.987 607.936L472.91 607.903C469.845 608.514 406.961 210.688 405.693 209.771V209.788Z" fill="black"/>
<path d="M479.424 606.666H472.893L405.805 209.9H412.352L479.424 606.666Z" fill="#999999"/>
<path d="M479.553 606.762L472.893 606.843C472.797 606.843 472.733 606.778 472.717 606.698C473.953 605.171 401.408 208.598 405.805 208.614L412.352 208.566C413.01 208.566 413.555 209.048 413.651 209.675L422.316 259.377C440.753 366.69 462.255 499.079 479.537 606.762H479.553ZM479.312 606.553C460.233 499.096 437.031 367.06 419.155 259.602L411.052 210.125L412.352 211.234L405.805 211.202C408.597 202.458 471.995 608.498 473.07 606.65L472.893 606.505L479.296 606.585L479.312 606.553Z" fill="black"/>
<path d="M437.833 58.4628H424.755L385.683 606.216H398.761L437.833 58.4628Z" fill="#757575"/>
<path d="M437.721 58.5753L424.755 58.6557C424.082 57.4019 388.893 612.147 385.683 604.93L398.761 604.866L397.429 606.103L402.066 537.771C412.464 389.548 426.248 206.942 437.721 58.5592V58.5753ZM437.961 58.3503C428.254 206.975 415.994 389.42 405.243 537.706L400.109 606.312C400.061 607.02 399.467 607.566 398.777 607.55L385.699 607.502C381.832 607.566 425.542 59.5559 424.772 58.2699L437.977 58.3503H437.961Z" fill="black"/>
<path d="M389.695 58.4628H376.617L283.935 606.666H297.013L389.695 58.4628Z" fill="#757575"/>
<path d="M389.582 58.5592L376.633 58.6396C375.895 57.5144 286.807 612.903 283.951 605.364L297.029 605.299L295.713 606.409C321.13 451.403 362.24 215.269 389.599 58.527L389.582 58.5592ZM389.823 58.3502C363.909 216.603 325.494 450.969 298.345 606.875C298.232 607.534 297.671 608 297.029 607.984L283.951 607.936C279.715 607.823 377.436 59.6683 376.633 58.2538L389.839 58.3502H389.823Z" fill="black"/>
<path d="M383.148 58.4628H376.617L283.935 606.666H290.482L383.148 58.4628Z" fill="#999999"/>
<path d="M383.036 58.5592L376.633 58.6235C375.815 57.643 286.839 612.855 283.951 605.364L290.498 605.332L289.198 606.425C314.551 451.403 355.693 215.285 383.036 58.5432V58.5592ZM383.276 58.3503C362.497 185.628 325.013 413.403 303.656 538.237L291.782 606.875C291.669 607.518 291.124 607.968 290.482 607.968L283.935 607.936C279.49 607.968 377.708 59.9095 376.441 58.4146C376.457 58.3342 376.537 58.2699 376.617 58.2699L383.276 58.3342V58.3503Z" fill="black"/>
<path d="M431.286 58.4628H424.755L385.683 606.216H392.214L431.286 58.4628Z" fill="#999999"/>
<path d="M431.174 58.5752L424.755 58.6395L424.932 58.4788C423.632 58.1573 389.133 611.986 385.683 604.93L392.214 604.898L390.914 606.119L395.52 537.787C405.901 389.564 419.685 206.958 431.174 58.5752ZM431.415 58.3502C421.659 209.209 409.576 386.751 398.697 537.706L393.546 606.312C393.498 607.003 392.92 607.534 392.23 607.534L385.699 607.502C381.64 607.711 425.895 59.813 424.595 58.4466C424.595 58.3502 424.675 58.2859 424.771 58.2859L431.415 58.3502Z" fill="black"/>
<path d="M464.807 348.156H288.348L317.68 85.4034H494.139L464.807 348.156Z" fill="#BFBFBF"/>
<path d="M464.919 348.269C464.068 348.012 288.364 349.008 287.594 348.832C287.883 346.388 316.252 86.5448 316.525 84.1175C339.118 84.005 383.325 83.78 405.901 83.7478H494.123H495.968L495.759 85.5803C487.64 159.089 473.76 274.021 464.887 348.269H464.919ZM464.71 348.028C472.236 273.491 484.415 158.799 492.502 85.2106L494.139 87.0431H405.917C383.95 87.0431 339.663 86.802 317.696 86.6894L318.964 85.5481L289.022 348.237C284.738 346.469 465.609 348.494 464.71 348.044V348.028Z" fill="black"/>
<path d="M480.868 146.776L458.388 348.157H281.929L311.261 85.4036H487.72L485.474 105.577" fill="white"/>
<path d="M481.029 146.792L459.158 348.237C459.19 350.278 282.684 348.639 281.929 349.346C281.223 349.346 280.662 348.719 280.742 348.028C288.99 273.426 301.217 158.928 309.721 85.2428C309.801 84.4551 310.475 83.8604 311.262 83.8604L399.483 84.2622C421.45 84.439 465.737 84.7445 487.704 85.0338C487.929 85.0338 488.105 85.2267 488.089 85.4517L485.618 105.593C485.618 105.673 485.522 105.738 485.442 105.738C485.361 105.738 485.297 105.641 485.297 105.561L487.319 85.3553L487.704 85.7732C438.459 86.2715 361.053 86.8181 311.246 86.9466L312.786 85.5642C304.635 158.976 291.701 274.085 283.101 348.285L281.913 346.967C281.528 346.967 461.677 346.581 457.602 348.076C457.891 348.06 480.211 145.731 481.013 146.808L481.029 146.792Z" fill="black"/>
<path d="M483.388 125.75C483.677 127.406 483.869 129.078 483.966 130.766C484.014 131.602 484.335 132.454 484.014 133.241C483.709 134.029 483.276 134.8 482.313 135.524C482.217 135.604 482.072 135.588 481.992 135.492C481.206 134.575 480.949 133.723 480.837 132.888C480.692 132.052 481.206 131.28 481.43 130.476C481.88 128.853 482.441 127.278 483.099 125.718C483.163 125.574 483.388 125.59 483.42 125.75H483.388Z" fill="black"/>
<path d="M313.444 164.249C317.953 150.553 329.634 139.414 331.448 125.059C333.261 110.705 335.684 102.732 349.323 100.706C362.962 98.681 372.975 122.825 392.038 112.103C411.1 101.382 436.389 86.0144 446.016 109.081C455.644 132.148 455.436 139.623 464.213 142.934C472.99 146.245 471.064 183.217 458.869 187.733C446.674 192.25 444.3 212.536 452.178 226.843C460.057 241.149 458.516 267.415 448.022 279.358C437.528 291.301 449.852 302.264 440.432 319.303C431.013 336.342 395.503 340.36 370.969 334.043C346.435 327.726 343.482 304.563 328.688 301.46C313.893 298.358 303.576 278.86 304.699 260.695C305.822 242.531 319.702 233.369 318.579 212.938C317.455 192.508 308.935 177.976 313.444 164.249Z" fill="white"/>
<path opacity="0.2" d="M313.444 164.249C317.953 150.553 329.634 139.414 331.448 125.059C333.261 110.705 335.684 102.732 349.323 100.706C362.962 98.681 372.975 122.825 392.038 112.103C411.1 101.382 436.389 86.0144 446.016 109.081C455.644 132.148 455.436 139.623 464.213 142.934C472.99 146.245 471.064 183.217 458.869 187.733C446.674 192.25 444.3 212.536 452.178 226.843C460.057 241.149 458.516 267.415 448.022 279.358C437.528 291.301 449.852 302.264 440.432 319.303C431.013 336.342 395.503 340.36 370.969 334.043C346.435 327.726 343.482 304.563 328.688 301.46C313.893 298.358 303.576 278.86 304.699 260.695C305.822 242.531 319.702 233.369 318.579 212.938C317.455 192.508 308.935 177.976 313.444 164.249Z" fill="white"/>
<path d="M461.068 128.788C461.373 121.201 453.783 115.929 447.14 112.344L444.428 110.865C442.936 109.965 441.347 109.242 439.695 108.711C430.693 106.107 422.573 114.37 413.812 117.697C402.757 121.603 390.449 117.729 383.614 108.197C380.308 103.375 376.762 96.3342 371.017 97.588C365.802 98.7293 364.005 106.316 358.79 107.377C353.976 108.342 349.387 103.198 344.782 104.709C343.177 105.223 341.974 106.445 340.417 106.992C337.096 108.181 333.004 106.091 330.036 108.004C327.067 109.917 327.372 113.936 327.837 117.263C328.784 123.854 329.811 128.515 327.693 134.768C325.206 142.082 321.804 148.962 324.484 156.838C325.543 160.053 327.5 163.268 326.522 166.371C325.912 167.737 325.238 169.071 324.484 170.357C322.542 174.794 325.142 179.761 326.088 184.519C327.131 189.984 325.896 195.61 324.644 201.043C324.147 204.242 322.991 207.312 321.275 210.045C319.526 212.038 317.664 213.919 315.707 215.703C311.101 220.911 309.85 228.289 312.497 234.719C315.707 242.194 324.05 247.402 324.773 255.519C325.206 260.47 322.542 265.244 319.012 268.717C315.482 272.189 311.085 274.632 306.961 277.397C305.02 278.458 303.447 280.081 302.436 282.058C300.013 288.102 308.181 293.777 307.78 300.303C307.555 303.904 304.667 307.102 305.1 310.687C305.549 314.561 309.545 316.892 313.123 318.29C323.97 322.518 336.374 324.061 347.189 319.753C355.388 316.538 363.235 309.899 371.884 311.716C379.217 313.227 384.801 320.605 392.294 320.476C400.51 320.332 405.918 311.282 413.892 309.305C411.389 307.022 412.288 302.521 414.903 300.415C417.519 298.31 421.322 298.117 424.611 298.647C428.238 299.226 432.378 300.415 435.25 298.117C439.149 295.03 437.111 288.922 435.667 284.148C432.313 272.639 434.656 260.213 441.989 250.729C444.203 247.916 446.995 244.75 446.097 241.294C445.616 239.493 444.187 238.079 443.658 236.294C441.941 230.62 449.579 226.425 450.718 220.622C451.408 217.15 449.659 213.71 447.958 210.607L439.341 194.79C436.389 189.405 433.372 183.008 435.843 177.382C439.743 168.557 454.473 167.93 456.703 158.558C457.827 153.961 455.227 149.219 455.676 144.509C456.254 138.915 460.843 134.334 461.068 128.788Z" fill="white"/>
<path opacity="0.2" d="M370.76 210.575L379.233 267.334L435.153 245.28L423.552 192.025L370.76 210.575Z" fill="white"/>
<path opacity="0.6" d="M391.685 220.445L448.873 256.178L386.582 296.445L391.685 220.445Z" fill="black"/>
<path opacity="0.4" d="M365.454 234.024L362.178 320.233L371.478 320.588L374.754 234.378L365.454 234.024Z" fill="white"/>
<path opacity="0.2" d="M432.875 157.015C445.476 157.015 455.692 146.781 455.692 134.157C455.692 121.533 445.476 111.299 432.875 111.299C420.273 111.299 410.057 121.533 410.057 134.157C410.057 146.781 420.273 157.015 432.875 157.015Z" fill="black"/>
<path opacity="0.2" d="M317.696 308.678L318.948 275.87L335.331 268.202L340.466 233.063L326.843 224.174L333.245 161.211L361.181 153.302L354.779 215.59L380.693 228.884L380.902 276.786L353.543 285.868L351.81 331.343L317.696 308.678Z" fill="white"/>
<path opacity="0.6" d="M328.768 130.171L387.128 135.492L380.308 124.706L328.768 130.171Z" fill="white"/>
<path opacity="0.4" d="M386.245 158.992L409.175 156.115L421.932 165.856L386.245 158.992Z" fill="white"/>
<path opacity="0.6" d="M322.446 182.365L379.153 175.131L386.245 198.455L365.61 204.805L370.761 223.788L343.611 229.672L322.446 182.365Z" fill="black"/>
<path d="M222.832 504.432L263.188 589.675H282.459L250.383 493.196L222.832 504.432Z" fill="white"/>
<path d="M222.992 504.497L264.15 589.225L263.188 588.614L282.459 588.47L281.304 590.077C271.516 561.706 257.86 521.889 249.34 493.566L250.8 494.241C243.9 496.861 229.924 501.989 222.992 504.513V504.497ZM222.687 504.384C229.459 501.314 243.146 495.157 249.982 492.184C250.543 491.926 251.201 492.216 251.41 492.794C261.519 520.442 274.484 560.87 283.614 589.289C283.887 590.061 283.277 590.913 282.459 590.897L263.188 590.752C262.771 590.752 262.401 590.511 262.225 590.141L222.671 504.384H222.687Z" fill="black"/>
<path d="M254.924 525.12C254.924 525.12 239.311 532.659 226.619 529.942L221.805 521.535C221.805 521.535 209.803 511.569 197.864 491.894C194.527 486.381 191.526 480.674 188.878 474.791C174.902 443.799 161.071 404.063 161.071 404.063L129.556 327.324L127.952 323.289L115.676 287.363L189.697 248.784C189.697 248.784 199.677 299.965 199.036 313.082C198.394 326.199 234.337 438.206 238.252 451.563C242.167 464.921 254.908 503.58 251.731 516.038L254.924 525.12Z" fill="#F26D6D"/>
<path opacity="0.2" d="M205.967 493.196C205.695 493.582 205.438 493.936 205.149 494.289C201.811 488.776 198.811 483.069 196.163 477.186C182.187 446.195 168.355 406.459 168.355 406.459L136.841 329.719L165.05 304.498L173.33 305.816C173.33 305.816 178.865 314.497 170.955 319.48C163.044 324.463 176.475 344.041 183.15 358.251C189.825 372.461 178.336 386.253 178.336 386.253C178.336 386.253 188.91 408.645 201.972 419.736C201.972 419.736 191.638 416.987 196.885 427.773C202.132 438.559 216.879 477.492 205.967 493.196Z" fill="black"/>
<path d="M262.305 527.596C261.359 528.19 259.882 528.657 258.856 529.107C250.929 532.048 241.991 534.427 233.615 532.482L228.769 524.091L228.833 524.172C220.714 516.97 213.91 508.467 207.893 499.497C201.844 490.528 196.95 480.803 192.714 470.885C184.081 451.097 176.298 430.956 168.933 410.654C168.308 408.757 166.847 404.964 166.045 403.115C164.023 398.261 158.84 385.674 156.754 380.691C152.775 371.03 142.072 345.263 138.189 335.86C133.52 325.475 125.705 301.042 121.79 290.128C121.597 289.565 121.854 288.954 122.368 288.697L196.26 249.877C196.966 249.508 197.848 249.781 198.233 250.488C200.64 261.853 202.566 273.346 204.507 284.823C206.128 295.464 207.925 306.17 207.941 316.988C209.626 328.883 213.285 340.602 216.398 352.239C225.704 385.369 235.878 418.225 245.794 451.194C248.971 462.221 252.341 473.2 255.117 484.371C257.524 495.495 261.086 507.069 259.273 518.514V518.337L262.338 527.579L262.305 527.596ZM262.017 527.467L258.695 518.546C258.695 518.546 258.679 518.417 258.695 518.369C260.155 507.02 256.288 495.704 253.641 484.757C250.672 473.698 247.11 462.799 243.724 451.837C233.278 419.045 222.688 386.253 213.301 353.124C210.252 341.968 207.027 330.989 205.021 319.528C204.491 316.602 204.812 313.741 204.572 310.799C202.887 290.883 199.036 271.144 195.506 251.485L197.608 252.497L123.459 290.835L124.036 289.404L134.402 320.042C137.21 328.787 142.794 341.405 146.228 350.118C152.005 364.102 161.953 388.873 167.585 402.569C176.042 425.298 184.065 448.22 193.741 470.467C201.94 490.271 213.349 509.174 229.234 523.722C229.267 523.738 229.283 523.77 229.299 523.802L234.08 532.225C241.381 533.447 251.153 531.871 258.727 528.785C259.353 528.56 260.669 528.014 261.246 527.756L261.664 527.579C261.824 527.515 261.92 527.435 262.001 527.483L262.017 527.467Z" fill="black"/>
<path d="M236.712 522.805C239.68 522.436 242.665 521.921 245.553 521.214C248.506 520.137 250.864 519.623 254.122 519.349C254.25 519.333 254.363 519.478 254.314 519.607C252.838 522.886 249.164 523.85 245.938 523.754C242.825 523.947 239.745 523.706 236.696 523.127C236.519 523.095 236.535 522.821 236.696 522.805H236.712Z" fill="black"/>
<path d="M260.01 606.666C255.999 604.865 259.689 589.675 259.689 589.675C259.689 589.675 254.282 586.042 259.689 582.265C263.958 585.881 269.863 586.846 275.046 584.756C275.046 584.756 276.105 574.581 282.459 575.899C282.459 575.899 284.063 582.329 287.802 586.026C297.895 595.992 310.941 597.134 313.123 601.94C313.444 603.499 313.38 605.123 312.978 606.666H260.01Z" fill="black"/>
<path d="M251.843 119.24L297.895 188.537L360.475 139.028L374.917 146.294C374.917 146.294 316.092 217.889 296.628 220.236C277.164 222.583 230.502 155.134 230.502 155.134" fill="white"/>
<path d="M251.988 119.144L298.505 188.135L297.462 187.975L359.785 138.128C360.138 137.838 360.62 137.806 360.989 137.999C360.989 137.999 375.462 145.184 375.478 145.2C376.168 145.538 376.377 146.486 375.88 147.081C359.593 166.692 342.889 186.014 324.291 203.503C317.937 209.321 311.503 214.98 303.913 219.272C294.702 225.042 286.663 219.738 279.33 213.903C272.671 208.486 266.766 202.297 261.118 195.883C250.094 182.959 239.328 169.28 230.438 155.038C230.502 154.99 230.614 155.006 230.663 155.07C240.82 168.605 251.378 181.898 262.851 194.324C268.612 200.464 274.517 206.557 281.095 211.668C287.626 216.571 294.558 221.538 302.373 216.442C316.557 207.827 328.399 195.128 340.113 183.345C351.827 171.145 363.123 158.51 374.002 145.554L374.403 147.435L359.994 140.089L361.213 139.96L298.377 189.132C298.056 189.389 297.559 189.325 297.334 188.971C297.607 188.794 250.672 118.854 252.02 119.192L251.988 119.144Z" fill="black"/>
<path d="M244.959 108.583C254.41 112.65 262.289 119.674 267.424 128.596C275.896 143.432 284.834 156.211 284.834 156.211C284.834 156.211 264.343 178.716 247.928 185.033L228.352 178.25L244.959 108.583Z" fill="black"/>
<path d="M134.515 508.66L156.722 589.675H175.833L167.553 496.942L134.515 508.66Z" fill="white"/>
<path d="M134.659 508.74L157.701 589.418L156.722 588.662L175.833 588.502L174.662 589.788L170.089 543.461C168.741 530.039 167.297 510.701 166.302 497.054L167.971 498.131C165.275 499.063 162.547 499.899 159.819 500.783C154.572 502.487 140.115 507.02 134.659 508.74ZM134.37 508.596C143.918 504.898 157.637 499.256 167.136 495.768C167.89 495.479 168.757 496.025 168.805 496.845C171.854 523.175 174.902 562.847 177.005 589.579C177.069 590.27 176.523 590.881 175.833 590.865C175.817 590.865 156.722 590.704 156.706 590.704C156.241 590.704 155.856 590.382 155.743 589.948L134.37 508.596Z" fill="black"/>
<path d="M189.713 273.716L105.327 232.388C105.327 232.388 90.0828 277.493 90.8851 315.461C91.6874 353.429 104.3 405.478 105.327 429.477C106.353 453.476 104.829 498.694 131 529.926L134.209 539.957C134.209 539.957 158.375 543.349 165.981 539.957L164.713 530.505C164.713 530.505 175.127 509.431 167.28 475.514C159.434 441.597 155.663 317.39 155.663 317.39C155.663 317.39 165.082 309.353 168.885 301.171" fill="#F26D6D"/>
<path d="M196.87 276.272L112.323 235.266L113.029 234.976C109.194 247.064 106.049 259.426 103.594 271.883C101.123 284.341 99.4379 296.959 98.9725 309.626C98.4109 347.915 108.343 385.24 112.917 423.063C114.345 435.778 113.863 448.525 115.035 461.208C116.832 486.365 123.314 512.18 139.617 531.904L142.859 541.918L141.623 540.873C146.838 541.548 152.149 542.014 157.412 542.223C162.338 542.32 168.019 542.577 172.544 540.937L171.613 542.609L170.345 533.157C170.297 532.82 170.361 532.514 170.49 532.241C172.191 528.431 173.362 524.091 174.196 519.832C176.732 506.86 176.09 493.437 173.362 480.514C171.469 471.753 170.201 462.751 169.318 453.862C166.591 427.146 165.147 400.318 164.039 373.49C163.462 355.535 162.403 337.387 162.563 319.496C167.762 314.931 172.768 309.771 175.929 303.55C176.01 303.357 176.315 303.502 176.218 303.679C173.17 310.092 168.292 315.381 163.141 320.171L163.301 319.817C165.564 364.424 167.521 409.111 172.335 453.508C173.314 462.398 174.662 471.11 176.491 479.838C180.118 497.585 180.39 516.633 173.33 533.64L173.474 532.723L174.742 542.175C174.87 547.914 145.522 544.57 141.19 543.895C140.596 543.815 140.131 543.397 139.954 542.85L136.777 532.804L137.05 533.302C120.458 513.145 114.377 486.895 112.58 461.401C111.488 448.734 112.018 435.907 110.686 423.305C106.322 385.465 96.5656 347.899 97.3679 309.562C97.9295 296.783 99.7107 284.1 102.294 271.61C104.845 259.104 108.087 246.775 112.034 234.639C112.114 234.365 112.403 234.221 112.676 234.317C112.612 234.623 198.073 275.854 196.838 276.272H196.87Z" fill="black"/>
<path d="M116.767 224.046C121.854 195.353 128.481 127.486 151.331 111.991C174.18 96.4948 213.397 95.1767 229.218 101.446C260.235 113.759 260.717 119.546 255.646 142.998C250.576 166.451 217.232 238.48 217.232 238.48L209.514 276.625C209.514 276.625 180.502 298.776 147.239 289.485C108.231 278.602 101.909 253.912 101.909 253.912L116.767 224.046Z" fill="black"/>
<path d="M232.732 85.6447C232.122 86.7056 231.368 87.67 230.502 88.522C229.828 89.181 229.186 89.8722 228.576 90.5956C226.394 92.9585 224.886 95.868 224.228 99.0186C223.955 100.626 224.051 102.266 224.485 103.841C225.158 106.107 226.49 108.133 228.303 109.66C228.303 109.66 228.673 119.883 216.012 121.121C200.784 122.6 192.232 106.654 192.232 106.654C211.198 80.5651 196.933 69.5381 196.933 69.5381C215.338 59.3951 239.712 73.2673 232.732 85.6447Z" fill="white"/>
<path d="M232.877 85.725C231.93 87.5414 229.7 89.5507 228.352 91.0939C223.185 97.1861 222.784 104.162 228.817 109.644C228.255 124.738 208.085 124.706 199.244 116.604C196.035 113.952 193.323 110.882 191.157 107.233C190.916 106.815 190.964 106.316 191.237 105.947C195.826 99.2597 200.062 91.6404 200.48 83.3781C200.512 80.324 200.03 77.0127 198.522 74.3443C197.832 73.0262 196.837 71.6759 195.907 70.8561C195.152 70.2775 195.024 69.1683 195.666 68.4611C203.175 63.7995 213.044 63.494 221.131 66.7089C228.464 69.3612 237.594 77.3342 232.845 85.725H232.877ZM232.604 85.5643C236.968 77.3663 227.598 70.4704 220.489 68.67C212.851 66.5321 204.523 67.2555 197.736 70.9847L197.944 68.2199C204.491 73.9907 204.7 83.7639 201.972 91.3832C200.111 97.0736 196.677 102.523 193.211 107.361L193.291 106.091C197.014 112.601 203.208 118.517 210.765 120.012C218.066 121.459 227.517 118.244 227.774 109.676L227.967 110.062C226.137 108.454 224.806 106.316 224.18 104.002C222.864 99.2758 225.142 94.4374 228.111 90.8849C229.427 89.3578 231.657 87.3646 232.588 85.5803L232.604 85.5643Z" fill="black"/>
<path d="M228.577 90.5956C226.394 92.9585 224.886 95.868 224.228 99.0186C214.039 93.9873 213.397 86.6091 213.397 86.6091C217.713 87.3003 221.95 88.4898 225.993 90.1777C226.828 90.467 227.694 90.6117 228.577 90.5956Z" fill="black"/>
<path d="M194.061 57.7875C187.161 28.1784 201.442 15.3349 210.813 11.461C225.8 5.24016 245.296 15.0134 249.741 31.4737C254.186 47.9339 250.174 51.6632 250.383 58.3984C250.527 63.1243 253.432 65.439 250.238 77.2859C248.12 85.1141 244.574 97.7968 231.256 95.4018C224.629 93.8586 218.435 90.8688 213.092 86.6573" fill="white"/>
<path d="M193.917 57.8197C192.04 49.7021 191.061 41.2309 192.922 33.0008C195.377 20.5431 205.903 9.38742 218.965 8.71229C231.882 7.90857 244.815 15.8011 249.87 27.857C251.394 31.8595 252.389 36.0067 252.966 40.2664C254.266 46.7444 252.004 52.7563 252.052 58.8646C252.196 60.6167 252.918 62.6421 253.207 64.8925C253.769 69.4255 252.838 73.7495 251.747 77.8324C249.661 85.725 245.505 96.2055 235.893 96.7521C227.405 96.7681 219.35 92.0905 212.996 86.7859C212.851 86.6573 213.044 86.4162 213.188 86.5287C219.703 90.8688 227.838 94.9517 235.685 94.5177C244.157 93.3443 246.853 84.3265 248.666 76.9966C249.677 73.0905 250.431 69.104 249.918 65.3426C249.693 63.4779 249.019 61.5329 248.81 59.1378C248.682 52.7241 251.266 46.9534 250.126 40.6201C248.923 27.6801 243.307 17.6658 230.823 12.6023C214.472 5.7546 197.624 16.5245 193.853 33.2419C191.815 41.2791 192.569 49.7182 194.222 57.7715C194.302 57.9805 193.933 58.0609 193.917 57.8519V57.8197Z" fill="black"/>
<path d="M210.814 62.9796C210.814 62.9796 205.39 52.8527 199.726 55.3282C194.061 57.8037 197.993 69.8917 202.935 73.846C207.877 77.8003 210.83 73.846 210.83 73.846" fill="white"/>
<path d="M210.685 63.06C208.727 60.2148 206.208 56.9517 202.871 55.9712C196.452 54.8138 197.928 63.2529 199.95 66.7893C201.924 70.6954 205.582 77.1091 210.717 73.7656C210.846 73.637 211.054 73.8138 210.974 73.9585C210.059 75.9035 207.62 76.9483 205.502 76.4983C199.116 75.0355 196.228 68.0592 195.762 62.1598C195.201 57.5625 198.185 52.7081 203.352 54.4441C207.107 56.0516 209.209 59.4915 210.974 62.9153C211.054 63.0922 210.797 63.2368 210.685 63.06Z" fill="black"/>
<path d="M232.941 48.3197C231.32 48.2715 229.668 48.7698 228.48 49.7825C227.213 51.3417 227.084 51.7436 224.613 52.692C224.501 52.7402 224.356 52.692 224.324 52.5634C223.49 50.1522 224.982 48.159 227.229 47.5321C229.138 46.7444 231.352 46.9695 233.037 48.0304C233.182 48.1268 233.085 48.3519 232.925 48.3358L232.941 48.3197Z" fill="black"/>
<path d="M251.811 44.8798C250.238 45.0726 248.762 45.5549 247.575 46.1496C246.965 46.4711 246.66 47.1141 246.083 47.2266C245.489 47.3874 244.863 47.5803 243.692 47.741C243.579 47.7571 243.467 47.6928 243.435 47.5803C243.114 46.455 243.483 45.3941 244.173 44.6386C244.847 43.851 245.97 43.7706 246.853 43.6742C248.618 43.4491 250.335 43.7867 251.875 44.5583C252.02 44.6386 251.971 44.8637 251.811 44.8798Z" fill="black"/>
<path d="M242.264 56.0837C242.505 57.9483 242.505 60.3595 243.965 61.3722C244.575 61.5651 245.281 61.4204 246.019 61.3722C246.805 61.2114 248.522 61.5169 248.955 62.6581C250.784 67.0625 246.259 71.483 242.039 69.8113C241.895 69.763 241.895 69.5541 242.023 69.4898C244.591 67.8502 245.762 66.4839 246.436 63.9441C246.484 63.6387 246.516 63.8959 246.693 63.8959C245.762 63.5422 244.029 63.8316 243.002 62.9957C240.948 61.2757 241.574 58.3341 241.927 56.0676C241.959 55.8908 242.248 55.9069 242.248 56.0998L242.264 56.0837Z" fill="black"/>
<path d="M231.882 57.4339C231.882 58.8002 231.272 59.9255 230.502 59.9255C229.732 59.9255 229.138 58.8002 229.138 57.4339C229.138 56.0676 229.748 54.9424 230.502 54.9424C231.256 54.9424 231.882 56.0515 231.882 57.4339Z" fill="black"/>
<path d="M232.042 57.4339C231.882 58.2698 232.075 59.2021 231.625 60.0219C229.972 62.1437 227.87 59.2182 227.854 57.4339C227.582 55.714 228.191 53.2867 230.518 53.3349C231.882 53.4635 232.476 54.5405 232.395 55.5854C232.315 56.3409 232.107 56.9035 232.058 57.4339H232.042ZM231.722 57.4339C231.673 56.7909 230.871 56.0033 230.229 56.1962C230.101 56.2444 230.181 56.5016 230.502 56.5498C230.823 56.598 231.032 56.4373 231.032 56.4373C230.165 56.9999 230.358 58.3502 230.502 59.1217C230.454 59.2825 230.967 59.2021 231.288 58.8163C231.625 58.4627 231.786 57.9322 231.722 57.4339Z" fill="black"/>
<path d="M247.719 56.0676C247.719 57.45 247.094 58.5591 246.339 58.5591C245.585 58.5591 244.959 57.45 244.959 56.0676C244.959 54.6852 245.585 53.576 246.339 53.576C247.094 53.576 247.719 54.6852 247.719 56.0676Z" fill="black"/>
<path d="M247.88 56.0676C247.719 56.9034 247.912 57.8358 247.447 58.6556C245.81 60.7613 243.676 57.8358 243.676 56.0676C243.403 54.3476 244.029 51.9364 246.339 51.9686C247.703 52.0972 248.313 53.1581 248.217 54.219C248.153 54.9745 247.928 55.5371 247.88 56.0676ZM247.559 56.0676C247.495 55.5693 247.126 55.087 246.644 54.8941C246.163 54.6369 245.649 54.9745 246.339 55.1835C246.644 55.2317 246.853 55.0709 246.853 55.0709C246.291 55.3603 246.083 56.5176 246.227 57.1606C246.275 57.5143 246.42 57.7072 246.339 57.7554C246.275 57.9161 246.805 57.8358 247.126 57.45C247.479 57.0963 247.639 56.5659 247.559 56.0676Z" fill="black"/>
<path d="M231.962 73.5566C233.936 74.0549 235.941 74.2961 237.819 74.4086C240.033 74.1675 241.413 74.28 243.547 75.4534C243.659 75.5177 243.692 75.6624 243.611 75.7588C242.055 77.8967 239.455 77.961 237.337 76.9484C235.299 76.2893 233.422 75.2445 231.801 73.8621C231.673 73.7495 231.801 73.5245 231.962 73.5888V73.5566Z" fill="black"/>
<path d="M233.15 74.8104C234.273 77.5591 237.033 79.3112 239.632 77.6556C240.274 77.3984 241.028 77.0447 241.959 75.9838C242.039 75.8874 242.2 75.8874 242.28 75.9838C243.178 77.2216 242.761 79.1023 241.574 80.2114C240.451 81.3688 238.429 81.3366 237.113 80.8222C234.449 80.1632 232.765 77.4145 232.861 74.8425C232.861 74.6657 233.134 74.6336 233.182 74.7943L233.15 74.8104Z" fill="black"/>
<path d="M239.472 33.4187C237.305 30.7503 233.599 29.8984 230.502 31.3772C225.159 33.9652 226.908 39.8324 226.747 43.4973C226.587 47.1623 223.891 45.6995 221.195 47.8535C218.499 50.0075 220.248 53.576 220.248 53.576C220.248 53.576 214.6 52.6276 218.532 47.6606C222.463 42.6936 225.64 43.6581 223.105 39.0447C220.858 35.219 222.126 30.3002 225.945 28.0337C226.683 27.5997 227.469 27.2943 228.304 27.1175C234.048 25.6869 239.327 28.9178 239.472 33.4187Z" fill="black"/>
<path d="M151.555 606.666C151.555 606.666 149.582 599.095 151.892 596.282C156.048 591.25 151.379 587.023 155.567 585.271L157.316 587.296C157.653 585.238 156.674 578.969 164.424 578.15C173.779 577.153 173.956 583.985 174.469 586.187L174.309 583.052C178.304 583.052 176.234 587.039 182.332 593.581C185.541 597.134 187.113 601.859 186.696 606.634L151.555 606.666Z" fill="black"/>
<path d="M242.039 180.789C241.846 180.789 241.638 180.709 241.493 180.564C241.172 180.259 241.156 179.744 241.461 179.423C249.661 170.727 255.774 158.414 259.657 142.805C259.77 142.371 260.203 142.114 260.636 142.227C261.069 142.339 261.326 142.773 261.214 143.207C257.267 159.073 251.025 171.643 242.633 180.532C242.472 180.693 242.263 180.789 242.055 180.789H242.039Z" fill="white"/>
<path d="M261.439 139.398C261.439 139.398 261.327 139.398 261.278 139.381C260.845 139.285 260.572 138.867 260.653 138.433C261.118 136.167 261.455 134.173 261.696 132.325C261.76 131.891 262.145 131.569 262.594 131.634C263.027 131.698 263.348 132.1 263.284 132.534C263.044 134.431 262.69 136.456 262.209 138.771C262.129 139.156 261.792 139.414 261.423 139.414L261.439 139.398Z" fill="white"/>
<path d="M161.921 260.647C159.642 260.647 157.348 260.406 155.117 259.956C154.684 259.859 154.411 259.442 154.492 259.008C154.588 258.574 155.005 258.284 155.438 258.381C157.765 258.863 160.156 259.088 162.547 259.04C163.06 259.04 163.349 259.377 163.365 259.827C163.381 260.277 163.028 260.631 162.579 260.647C162.354 260.647 162.145 260.647 161.921 260.647Z" fill="white"/>
<path d="M166.671 260.39C166.27 260.39 165.917 260.085 165.869 259.667C165.82 259.233 166.141 258.831 166.575 258.783C180.743 257.223 196.244 250.295 212.627 238.175C212.98 237.918 213.493 237.982 213.75 238.352C214.007 238.706 213.943 239.22 213.574 239.477C196.966 251.758 181.209 258.799 166.751 260.374C166.719 260.374 166.687 260.374 166.655 260.374L166.671 260.39Z" fill="white"/>
<path d="M122.929 225.074C120.843 225.074 119.656 224.785 119.543 224.753C119.11 224.64 118.853 224.206 118.966 223.772C119.078 223.338 119.495 223.081 119.945 223.194C120.009 223.21 127.021 224.849 137.804 219.513C138.205 219.32 138.686 219.48 138.879 219.882C139.072 220.284 138.911 220.766 138.51 220.959C131.594 224.383 126.187 225.074 122.945 225.074H122.929Z" fill="white"/>
<path d="M214.119 126.715C213.076 126.715 212.049 126.651 211.022 126.538C210.589 126.49 210.268 126.088 210.316 125.654C210.364 125.22 210.765 124.898 211.198 124.947C213.605 125.22 216.028 125.156 218.419 124.754C218.852 124.69 219.27 124.979 219.334 125.413C219.398 125.847 219.109 126.265 218.676 126.329C217.167 126.57 215.643 126.699 214.135 126.699L214.119 126.715Z" fill="white"/>
<path d="M207.042 125.799C207.042 125.799 206.898 125.799 206.834 125.766C198.698 123.548 191.012 117.263 186.263 108.985C186.038 108.599 186.183 108.117 186.552 107.892C186.937 107.667 187.418 107.795 187.643 108.181C192.184 116.106 199.517 122.101 207.251 124.223C207.684 124.336 207.925 124.786 207.813 125.204C207.716 125.557 207.395 125.799 207.042 125.799Z" fill="white"/>
<path d="M119.88 411.104C128.385 421.89 137.531 432.274 147.512 441.678C150.737 444.844 153.866 448.075 157.829 450.406C157.99 450.47 157.91 450.744 157.733 450.711C148.314 448.863 141.671 440.777 135.878 433.753C130.006 426.568 124.582 419.077 119.608 411.281C119.511 411.12 119.752 410.927 119.864 411.088L119.88 411.104Z" fill="black"/>
<path d="M144.399 532.755C148.426 532.932 152.47 533.061 156.482 532.884C160.589 532.434 164.184 532.354 168.388 532.755C168.532 532.755 168.612 532.948 168.5 533.061C165.146 536.051 160.525 536.131 156.401 535.456C152.293 535.006 148.282 534.218 144.351 533.077C144.174 533.029 144.222 532.739 144.415 532.755H144.399Z" fill="black"/>
<path d="M176.667 394.821C188.958 407.005 201.49 419.029 215.531 429.14C220.104 432.644 224.42 436.261 229.812 438.495C229.972 438.559 229.908 438.833 229.731 438.8C225.335 438.398 221.051 436.437 217.36 434.091C210.99 430.458 205.486 425.507 200.255 420.459C191.783 412.47 184.096 403.774 176.442 395.03C176.314 394.885 176.539 394.66 176.683 394.805L176.667 394.821Z" fill="black"/>
<path d="M168.645 386.14C169.784 386.703 170.891 387.33 171.918 388.037C172.431 388.391 173.137 388.535 173.362 389.146C173.603 389.741 173.763 390.416 173.539 391.477C173.506 391.59 173.41 391.686 173.314 391.702C172.271 391.863 171.597 391.654 171.035 391.365C170.458 391.075 170.345 390.336 170.041 389.805C169.736 389.275 169.431 388.712 169.174 388.134C168.917 387.539 168.645 386.976 168.42 386.365C168.372 386.221 168.532 386.076 168.661 386.156L168.645 386.14Z" fill="black"/>
<path d="M180.069 318.033C177.293 320.107 173.811 322.1 170.313 322.486C169.078 322.421 167.842 322.148 166.671 321.264C166.575 321.2 166.559 321.071 166.639 320.975C167.762 320.058 168.869 319.64 169.928 319.287C173.426 318.869 176.331 318.837 179.925 317.744C180.085 317.695 180.214 317.92 180.069 318.033Z" fill="black"/>
<path d="M158.808 321.167C152.245 314.513 144.367 310.237 136.135 305.977C135.991 305.913 136.007 305.688 136.167 305.656C141.158 304.418 146.052 307.134 149.55 310.43C153.176 313.532 156.385 317.052 159.065 320.958C159.161 321.119 158.953 321.296 158.824 321.167H158.808Z" fill="black"/>
<path d="M147.528 168.541C147.528 168.541 107.99 211.363 98.2663 209.755C88.5424 208.148 83.504 192.347 85.6381 187.975C87.7722 183.602 123.394 142.13 123.394 142.13L147.528 168.541Z" fill="white"/>
<path d="M147.688 168.541C145.971 170.63 143.051 173.588 141.19 175.629C130.15 187.026 119.335 198.777 106.145 207.778C103.369 209.498 99.9031 211.604 96.5494 210.35C88.5906 207.505 84.194 198.166 83.9212 190.177C83.8891 188.36 84.8679 186.544 85.943 185.194C89.7138 179.969 93.7093 175.115 97.6887 170.148C105.664 160.294 113.863 150.65 122.352 141.23C122.849 140.635 123.748 140.555 124.325 141.085C132.011 149.733 140.403 159.78 147.704 168.557L147.688 168.541ZM147.367 168.541C140.243 161.452 129.203 150.296 122.368 143.079L124.454 143.046C116.463 152.852 108.263 162.497 100.064 172.125C95.9878 176.947 91.8319 181.77 88.045 186.721C85.8788 188.955 86.2639 191.816 86.9057 194.645C88.398 200.497 91.9603 207.248 98.2022 208.727C100.721 209.064 103.016 207.457 105.214 206.251C120.843 195.867 134.129 181.786 147.383 168.557L147.367 168.541Z" fill="black"/>
<path d="M162.579 105.963C162.579 105.963 139.232 112.489 127.582 129.882C115.933 147.274 110.429 151.502 110.429 151.502C110.429 151.502 122.271 173.54 132.894 180.323C143.516 187.107 165.9 174.81 165.9 174.81L162.579 105.963Z" fill="black"/>
<path d="M160.252 124.866C159.98 124.866 159.707 124.722 159.562 124.464C158.407 122.439 156.77 120.687 154.845 119.401C154.476 119.16 154.38 118.662 154.62 118.292C154.861 117.922 155.358 117.826 155.727 118.067C157.878 119.497 159.675 121.442 160.958 123.677C161.183 124.063 161.039 124.545 160.654 124.77C160.525 124.834 160.397 124.882 160.252 124.882V124.866Z" fill="white"/>
<path d="M139.104 184.888C139.104 184.888 139.007 184.888 138.959 184.888C137.371 184.615 135.83 183.972 134.498 183.04C134.129 182.783 134.049 182.284 134.306 181.915C134.562 181.545 135.06 181.464 135.429 181.722C136.44 182.429 137.595 182.943 138.799 183.217C141.735 179.761 145.731 178.008 149.598 176.321C154.363 174.231 158.856 172.27 160.525 167.239C165.933 157.722 166.221 145.12 161.472 128.547C161.343 128.113 161.6 127.679 162.017 127.551C162.434 127.422 162.884 127.679 163.012 128.097C167.89 145.12 167.537 158.124 161.969 167.898C160.14 173.459 155.101 175.662 150.223 177.799C146.404 179.471 142.441 181.207 139.729 184.615C139.569 184.808 139.344 184.92 139.104 184.92V184.888Z" fill="white"/>
<path d="M98.2667 209.755C87.1467 207.875 75.3047 207.183 68.5333 164.924L61.7939 122.664L77.0217 118.099C77.0217 118.099 96.0042 164.409 101.957 175.967C107.91 187.524 104.509 194.79 104.509 194.79" fill="white"/>
<path d="M98.2504 209.916C88.8955 209 81.9957 205.56 77.3905 197.073C69.2391 181.931 67.827 164.49 64.7622 147.901L60.51 122.857C60.3977 122.198 60.7989 121.587 61.4247 121.394L76.6042 116.636C77.3424 116.395 78.1447 116.797 78.4174 117.504C82.4771 126.956 90.4681 146.02 94.3352 155.552C96.9667 161.902 99.5822 168.267 102.358 174.504C105.343 180.629 107.461 188.232 104.669 194.838C104.573 195.015 104.284 194.903 104.38 194.71C106.322 188.071 103.834 181.223 100.609 175.404C94.2389 163.123 88.8474 150.489 83.4238 137.79C80.7762 131.441 78.1928 125.059 75.6575 118.645L77.4707 119.513L62.1949 123.886L63.1095 122.423L66.8643 147.531C69.6242 164.056 70.6512 181.416 78.257 196.558C82.5413 204.981 89.2165 208.421 98.3146 209.563C98.5071 209.579 98.459 209.932 98.2664 209.884L98.2504 209.916Z" fill="black"/>
<path d="M359.833 139.542C359.833 139.542 371.065 127.149 376.601 123.998C381.832 120.976 387.079 118.951 388.186 119.176C390.978 119.803 398.023 127.744 398.023 127.744C398.023 127.744 397.076 130.492 392.471 128.435C392.471 128.435 397.814 135.106 396.964 138.578C396.113 142.05 390.208 145.281 388.716 146.84C388.138 147.58 387.063 147.708 386.325 147.113C386.197 147.017 386.084 146.888 385.988 146.76C385.988 146.76 375.077 154.234 367.696 152.418" fill="white"/>
<path d="M359.721 139.43C367.455 130.669 375.687 121.185 387.513 118.211C388.187 118.067 389.021 118.34 389.567 118.645C393.353 120.896 396.001 123.886 399.002 126.94C399.323 127.277 399.387 127.76 399.226 128.162C398.312 130.492 395.648 130.846 393.594 130.283C393 130.139 392.455 129.93 391.925 129.721L393.562 127.583C396.033 131.023 399.371 134.672 398.456 139.317C396.803 143.722 392.952 145.281 389.823 147.917C388.925 149.171 386.052 149.557 384.801 147.596L386.791 147.965C381.094 151.196 374.275 154.475 367.648 152.595C367.471 152.53 367.535 152.257 367.728 152.289C374.162 152.723 380.035 149.01 385.17 145.602L387.16 145.972C387.224 145.972 387.208 146.036 387.256 146.036C387.352 146.068 387.465 146.02 387.497 145.94C389.952 143.416 393.995 141.471 395.295 138.385C395.792 135.733 393.016 131.698 391.364 129.351C390.866 128.74 390.979 127.84 391.604 127.358C392.022 127.052 392.567 127.004 393 127.213C394.236 127.744 395.889 128.451 396.803 127.374L397.044 128.612C394.316 125.686 391.428 121.957 387.93 120.205C380.629 121.828 374.066 126.008 368.61 131.2C365.626 133.916 362.738 136.777 359.913 139.687C359.785 139.832 359.528 139.623 359.673 139.478L359.721 139.43Z" fill="black"/>
<path d="M363.749 121.442L427.387 135.749V137.661L362.786 124.802C362.337 123.596 362.722 122.23 363.749 121.442Z" fill="#757575"/>
<path d="M363.717 121.282C379.666 124.529 411.742 131.167 427.66 134.527C429.056 134.816 428.543 136.649 428.655 137.645C428.655 138.337 428.109 138.899 427.419 138.915C411.101 136.07 394.814 133.096 378.688 129.222C373.344 127.904 368.001 126.651 362.69 125.204C362.545 125.172 362.401 125.075 362.369 124.931C361.935 123.548 362.433 122.021 363.701 121.266L363.717 121.282ZM363.781 121.603C363.043 122.343 362.69 123.677 363.187 124.657L362.866 124.384C368.322 125.075 373.745 125.959 379.169 126.795C395.44 129.367 411.534 132.887 427.628 136.424L426.12 137.662L426.152 135.749L427.115 136.954C411.325 133.177 379.554 125.477 363.781 121.587V121.603Z" fill="black"/>
<path d="M439.695 132.453C439.518 132.92 437.448 138.095 433.998 139.59C432.153 140.41 429.922 140.169 427.387 137.661V135.749C428.719 134.286 430.709 133.595 432.65 133.948C432.955 133.997 433.26 134.093 433.549 134.222C435.763 135.009 438.234 134.302 439.695 132.453Z" fill="black"/>
<path d="M439.695 132.453C439.518 132.92 437.448 138.095 433.998 139.59C434.432 138.481 435.009 136.89 434.736 136.729C434.464 136.568 432.827 136.552 431.976 136.215C431.126 135.877 432.955 134.013 432.666 133.948C432.971 133.997 433.276 134.093 433.565 134.222C435.779 135.009 438.234 134.302 439.695 132.453Z" fill="white"/>
<path opacity="0.2" d="M439.695 132.453C439.518 132.92 437.448 138.095 433.998 139.59C434.432 138.481 435.009 136.89 434.736 136.729C434.464 136.568 432.827 136.552 431.976 136.215C431.126 135.877 432.955 134.013 432.666 133.948C432.971 133.997 433.276 134.093 433.565 134.222C435.779 135.009 438.234 134.302 439.695 132.453Z" fill="black"/>
<path d="M366.251 146.776C366.251 146.776 377.789 145.827 379.907 138.61C380.629 136.794 381.72 135.154 383.116 133.788C383.116 133.788 393.594 134.897 393.594 130.573L379.907 127.277C374.547 128.419 369.75 131.328 366.251 135.556" fill="white"/>
<path d="M366.252 146.615C371.29 145.747 377.516 143.754 379.137 138.385C379.843 136.424 380.966 134.591 382.442 133.08C382.635 132.887 382.891 132.791 383.164 132.807C385.892 132.92 388.973 132.952 391.412 131.794C392.086 131.376 392.326 131.055 392.294 130.589L393.305 131.875L379.554 128.853H380.26C375.205 129.415 370.199 131.794 366.396 135.668C366.332 135.733 366.236 135.733 366.171 135.668C368.819 130.991 374.13 127.422 379.602 125.718C379.811 125.654 380.035 125.654 380.228 125.718C380.292 125.734 393.851 129.287 393.931 129.303C395.167 129.496 395.022 130.83 394.749 131.746C392.92 135.797 386.662 135.058 383.036 134.8L383.838 134.527C381.062 136.729 380.757 140.346 378.222 142.645C374.933 145.538 370.536 146.599 366.284 146.953C366.091 146.953 366.043 146.647 366.252 146.631V146.615Z" fill="black"/>
<path d="M385.78 146.824C385.218 145.876 385.042 144.654 385.282 143.464L385.7 144.349C385.202 144.22 384.801 144.075 384.368 143.834C382.892 143.095 382.073 141.262 382.474 139.639L383.373 141.262C380.196 140.7 378.784 137.356 381.03 134.961C381.56 134.398 382.186 133.997 382.908 133.756C383.004 133.723 383.116 133.772 383.148 133.884C383.18 134.672 383.052 135.363 383.02 135.942C382.972 136.842 383.084 137.276 383.357 137.951C383.421 138.208 383.806 138.594 384.063 138.755C384.705 139.06 385.299 139.623 384.962 140.378C384.352 141.455 385.234 142.5 386.133 143.063C386.454 143.223 386.791 143.577 386.55 143.947C386.085 144.718 385.908 145.715 386.053 146.728C386.085 146.904 385.828 146.985 385.748 146.84L385.78 146.824Z" fill="black"/>
<path d="M383.726 139.864C384.737 138.851 386.197 137.485 387.256 136.488C387.833 135.942 388.219 135.17 388.941 134.913C389.663 134.591 390.401 134.511 391.508 134.382C392.102 134.511 391.749 135.893 391.62 136.199C391.187 137.662 389.968 138.24 388.652 138.642C387.111 139.317 385.523 139.799 383.87 140.137C383.71 140.169 383.597 139.96 383.726 139.848V139.864Z" fill="black"/>
<path d="M385.876 143.561L389.503 140.507C390.08 140.008 390.433 139.269 391.091 139.044C391.877 138.69 392.503 138.771 393.434 138.417C394.092 138.401 393.963 139.88 393.819 140.217C393.434 141.777 392.182 142.355 390.818 142.709C389.262 143.304 387.657 143.673 386.021 143.85C385.86 143.866 385.78 143.657 385.892 143.561H385.876Z" fill="black"/>
<path d="M387.85 123.05C388.604 123.854 389.454 124.497 390.353 125.043C390.786 125.3 391.38 125.252 391.589 125.702C391.829 126.136 392.022 126.651 392.166 127.679C392.182 127.792 392.118 127.904 392.038 127.969C391.155 128.547 390.385 128.515 389.727 128.306C389.037 128.113 388.797 127.342 388.476 126.779C388.139 126.217 387.882 125.622 387.737 124.995C387.609 124.368 387.513 123.757 387.561 123.13C387.561 122.986 387.77 122.921 387.866 123.018L387.85 123.05Z" fill="black"/>
<path d="M388.556 124.85C388.171 125.461 387.769 126.04 387.32 126.57C387.111 126.827 387.063 127.326 386.694 127.245C386.454 127.229 385.395 126.843 385.042 126.152C384.849 125.236 384.977 124.754 385.17 124.416C385.362 124.046 385.86 124.271 386.213 124.239C386.951 124.191 387.705 124.304 388.443 124.529C388.572 124.577 388.62 124.722 388.556 124.834V124.85Z" fill="black"/>
<path d="M3.14532 112.312C-3.5138 100.031 -0.384816 66.082 29.172 61.6133C69.8007 55.4568 53.883 85.6124 80.0702 91.3349C106.257 97.0574 100.144 133.129 64.7141 137.661C37.4197 141.198 14.2492 132.823 3.14532 112.312Z" fill="#757575"/>
<path d="M3.01682 112.392C-1.84514 101.976 -0.384948 89.3096 4.31655 79.0862C10.9917 64.78 25.4332 59.5718 40.3721 59.9737C56.017 60.1827 59.2102 68.5253 65.9816 80.3722C68.918 85.0659 73.3949 88.3933 78.7543 89.7275L82.9262 90.8045L85.0443 91.56C98.7477 96.9128 101.058 112.843 92.9229 124.046C86.0392 133.997 73.8121 138.69 62.2108 139.542C39.5377 142.082 13.8158 133.788 3.01682 112.392ZM3.30565 112.232C14.4898 133.193 39.8746 139.269 61.9059 136.327C72.737 135.379 83.8248 131.2 90.3395 122.182C97.6084 112.537 95.9877 98.6971 84.0816 93.8747L82.1881 93.1674L78.1124 92.0583C72.3519 90.5634 67.185 86.6412 64.1523 81.5456C57.7981 70.2774 55.2307 61.983 40.34 61.6776C32.0602 61.5651 23.2349 62.4813 16.1104 67.0143C1.87755 76.0481 -3.56207 97.0735 3.2896 112.232H3.30565Z" fill="black"/>
<path d="M75.1923 97.9255C75.1923 97.9255 71.9831 94.2605 69.4799 93.6819C66.9767 93.1032 59.3228 95.6751 59.3228 95.6751C59.3228 95.6751 59.6437 99.4687 64.7142 99.6133C69.7848 99.758 67.2656 102.314 67.2656 102.314C67.2656 102.314 74.1012 105.625 75.1923 97.9255Z" fill="white"/>
<path d="M75.0477 97.9737C73.074 96.3502 70.7794 93.8265 67.9393 94.3409C65.1633 94.791 62.3392 95.7715 59.6916 96.752L60.4618 95.5625C61.4246 98.8096 64.4412 97.6683 67.3135 98.3273C69.1267 98.7774 70.1376 100.771 69.1909 102.41C68.9662 102.828 68.7737 103.085 68.4207 103.455L67.9714 100.835C71.4855 102.539 73.5073 101.462 75.0316 97.9576L75.0477 97.9737ZM75.3526 97.8773C76.1067 103.23 71.1806 105.786 66.5593 103.777C65.5163 103.359 65.2596 101.896 66.11 101.156C66.2063 101.06 66.2705 100.642 66.2223 101.092C66.2544 101.301 66.3988 101.542 66.447 101.542C66.4951 101.558 66.3989 101.51 66.2865 101.462C65.6607 101.221 64.8103 101.189 63.4945 100.964C60.9271 100.546 58.4239 98.5845 58.1833 95.7554C58.103 95.2089 58.456 94.7106 58.9535 94.5659C60.4137 94.1641 61.8418 93.8104 63.318 93.505C65.5163 93.1353 68.0516 92.4119 70.2499 93.296C72.384 94.357 73.8603 95.9805 75.3526 97.8612V97.8773Z" fill="black"/>
<path d="M48.2026 69.8916C44.9934 63.2207 37.9491 65.2943 35.2053 67.7859C30.1187 72.3832 32.67 76.8679 35.2053 75.6463C37.7405 74.4246 51.3958 76.5465 48.2026 69.8916Z" fill="white"/>
<path d="M16.9927 92.187C17.5383 92.5245 18.1159 92.7978 18.7096 93.0068C21.3893 93.714 24.1332 92.1227 24.8553 89.4382C24.8553 89.39 24.8874 89.3418 24.8874 89.2936C24.9355 88.8596 25.0158 88.4256 25.1281 87.9915C25.4329 87.3003 25.8181 86.6574 26.2673 86.0465C26.7166 85.4196 26.7808 84.5838 26.4278 83.8926C25.6897 82.8156 23.8604 83.4264 22.8014 82.6709C21.9991 82.1083 21.8547 80.967 21.1968 80.2115C20.234 79.0381 18.469 79.1024 16.9606 79.247C16.4472 79.247 15.8053 79.4721 15.693 79.9704C15.5807 80.4687 15.693 80.533 15.693 80.8063C15.5646 81.4171 14.7623 81.4975 14.0884 81.61C11.6333 82.0279 10.4299 84.9856 11.0557 87.2521C11.6815 89.5186 15.0672 91.0778 16.9927 92.187Z" fill="white"/>
<path d="M27.1342 110.158C26.364 108.84 26.717 107.104 25.9949 105.754C25.0643 104.018 22.7857 103.584 20.8762 103.391C18.4693 103.15 16.0624 102.989 13.6395 102.876C13.495 102.844 13.3506 102.876 13.2223 102.957C13.0297 103.085 13.0457 103.375 13.0457 103.6C12.9013 104.773 12.5323 105.915 11.9707 106.959C10.9758 109.644 14.0566 112.987 15.8378 114.804C17.1054 116.186 18.8063 117.086 20.6516 117.376C23.2831 117.649 25.7703 116.234 28.0328 114.868C28.3697 114.691 28.6586 114.45 28.8993 114.145C29.2362 113.421 29.1079 112.553 28.5623 111.959C28.0488 111.38 27.5674 110.785 27.1342 110.158Z" fill="white"/>
<path d="M45.0577 117.263C42.9236 116.202 40.3723 116.99 38.1419 117.794C37.5482 117.922 37.0186 118.276 36.6817 118.79C36.2966 119.578 36.8742 120.269 36.8582 121.025C36.8582 122.278 36.2966 122.037 35.9115 123.034C35.4301 124.464 36.2003 126.008 37.6284 126.49C37.6605 126.49 37.6926 126.506 37.7247 126.522C40.9339 128.129 44.2233 131.135 47.6732 128.258C48.9088 127.101 49.5025 125.429 49.2778 123.757C49.0692 122.102 48.3953 120.542 47.3523 119.24C46.7426 118.42 45.9563 117.745 45.0577 117.263Z" fill="white"/>
<path d="M77.8398 119.24C77.7114 118.983 77.5189 118.774 77.2782 118.629C76.9894 118.501 76.6845 118.453 76.3796 118.485C74.7269 118.662 73.0581 118.581 71.4214 118.26C70.5228 117.97 69.7044 117.472 68.8219 117.118C67.9554 116.7 66.9766 116.62 66.062 116.877C64.2809 117.536 65.1955 118.485 65.2276 119.69C65.2276 121.394 63.7995 122.744 63.8797 124.513C64.0723 126.008 65.1795 127.245 66.6396 127.599C68.0838 127.937 69.5761 127.953 71.0363 127.679C72.1434 127.631 73.2346 127.374 74.2455 126.892C74.8873 126.506 75.481 126.024 75.9785 125.461C76.8128 124.657 77.4868 123.709 77.9682 122.648C78.4496 121.555 78.4014 120.301 77.8398 119.24Z" fill="white"/>
<path d="M192.232 13.7115C192.232 13.7115 194.062 0 207.861 0C214.023 0 220.265 11.2521 229.138 7.24958C238.012 3.24704 246.789 3.72927 249.437 6.92809C255.165 13.7115 248.698 20.286 255.47 21.7809C262.241 23.2758 264.407 29.9467 260.701 34.6404C256.994 39.3342 261.295 44.2851 260.556 47.6607C259.69 52.5474 255.438 56.0838 250.48 56.0677C250.48 56.0677 254.202 35.5085 248.506 32.1328C243.58 29.1912 239.472 33.4188 239.472 33.4188C231.882 29.0305 223.281 32.4704 220.874 35.5406C216.446 41.231 219.446 47.8536 214.841 51.4382C213.237 52.7563 208.423 53.5922 209.081 57.868C209.739 62.1438 205.871 65.0372 205.871 65.0372L202.999 73.846C202.999 73.846 206.353 82.9281 200.448 89.9205C198.635 92.0905 195.281 92.3477 189.216 88.4738C192.473 86.8503 193.837 82.9281 192.312 79.6168C190.82 76.209 186.664 79.0381 183.503 74.7944C179.877 69.9721 183.503 62.7225 182.99 58.5271C182.556 55.1675 178.625 57.3697 175.256 50.2005C174.325 48.2394 173.651 38.1447 179.7 32.2132C179.62 32.2453 173.298 18.6785 192.232 13.7115Z" fill="black"/>
</g>
<defs>
<clipPath id="clip0_1185_743">
<rect width="496" height="608" fill="white"/>
</clipPath>
</defs>
</svg>
