<svg width="624" height="230" viewBox="0 0 624 230" fill="none" xmlns="http://www.w3.org/2000/svg">
<g clip-path="url(#clip0_1475_301)">
<rect width="624" height="230" fill="white"/>
<g clip-path="url(#clip1_1475_301)">
<path opacity="0.1" d="M292.04 159.25L292.04 289.75L1.08912e-05 449L3.05176e-05 -1.27655e-05L292.04 159.25Z" fill="#4363AE"/>
<g style="mix-blend-mode:multiply" opacity="0.18">
<path d="M294.07 159.25L294.07 289.75L28.31 449L28.3101 -1.16167e-05L294.07 159.25Z" fill="#4363AE"/>
</g>
<g style="mix-blend-mode:multiply" opacity="0.26">
<path d="M296.1 159.25L296.1 289.75L56.63 449L56.63 -1.04676e-05L296.1 159.25Z" fill="#4363AE"/>
</g>
<g style="mix-blend-mode:multiply" opacity="0.35">
<path d="M298.13 159.25L298.13 289.75L84.94 449L84.94 -9.31883e-06L298.13 159.25Z" fill="#4363AE"/>
</g>
<g style="mix-blend-mode:multiply" opacity="0.43">
<path d="M300.16 159.25L300.16 289.75L113.25 449L113.25 -8.1701e-06L300.16 159.25Z" fill="#4363AE"/>
</g>
<g style="mix-blend-mode:multiply" opacity="0.51">
<path d="M302.19 159.25L302.19 289.75L141.56 449L141.56 -7.02136e-06L302.19 159.25Z" fill="#4363AE"/>
</g>
<g style="mix-blend-mode:multiply" opacity="0.59">
<path d="M304.22 159.25L304.22 289.75L169.88 449L169.88 -5.87219e-06L304.22 159.25Z" fill="#4363AE"/>
</g>
<g style="mix-blend-mode:multiply" opacity="0.67">
<path d="M306.24 159.25L306.24 289.75L198.19 449L198.19 -4.72301e-06L306.24 159.25Z" fill="#4363AE"/>
</g>
<g style="mix-blend-mode:multiply" opacity="0.75">
<path d="M308.27 159.25L308.27 289.75L226.5 449L226.5 -3.57428e-06L308.27 159.25Z" fill="#4363AE"/>
</g>
<g style="mix-blend-mode:multiply" opacity="0.84">
<path d="M310.3 159.25L310.3 289.75L254.81 449L254.81 -2.42554e-06L310.3 159.25Z" fill="#4363AE"/>
</g>
<g style="mix-blend-mode:multiply" opacity="0.92">
<path d="M312.33 159.25L312.33 289.75L283.13 449L283.13 -1.27637e-06L312.33 159.25Z" fill="#4363AE"/>
</g>
<g style="mix-blend-mode:multiply">
<path d="M314.36 159.25L314.36 289.75L311.44 449L311.44 -1.27637e-07L314.36 159.25Z" fill="#4363AE"/>
</g>
<path opacity="0.1" d="M331.96 289.75L331.96 159.25L624 0L624 449L331.96 289.75Z" fill="#E73863"/>
<g style="mix-blend-mode:multiply" opacity="0.18">
<path d="M330.02 289.75L330.02 159.25L595.78 0L595.78 449L330.02 289.75Z" fill="#E73863"/>
</g>
<g style="mix-blend-mode:multiply" opacity="0.26">
<path d="M328.08 289.75L328.08 159.25L567.55 0L567.55 449L328.08 289.75Z" fill="#E73863"/>
</g>
<g style="mix-blend-mode:multiply" opacity="0.35">
<path d="M326.14 289.75L326.14 159.25L539.33 0L539.33 449L326.14 289.75Z" fill="#E73863"/>
</g>
<g style="mix-blend-mode:multiply" opacity="0.43">
<path d="M324.2 289.75L324.2 159.25L511.11 0L511.11 449L324.2 289.75Z" fill="#E73863"/>
</g>
<g style="mix-blend-mode:multiply" opacity="0.51">
<path d="M322.26 289.75L322.26 159.25L482.88 0L482.88 449L322.26 289.75Z" fill="#E73863"/>
</g>
<g style="mix-blend-mode:multiply" opacity="0.59">
<path d="M320.32 289.75L320.32 159.25L454.66 0L454.66 449L320.32 289.75Z" fill="#E73863"/>
</g>
<g style="mix-blend-mode:multiply" opacity="0.67">
<path d="M318.38 289.75L318.38 159.25L426.44 0L426.44 449L318.38 289.75Z" fill="#E73863"/>
</g>
<g style="mix-blend-mode:multiply" opacity="0.75">
<path d="M316.44 289.75L316.44 159.25L398.21 0L398.21 449L316.44 289.75Z" fill="#E73863"/>
</g>
<g style="mix-blend-mode:multiply" opacity="0.84">
<path d="M314.5 289.75L314.5 159.25L369.99 0L369.99 449L314.5 289.75Z" fill="#E73863"/>
</g>
<g style="mix-blend-mode:multiply" opacity="0.92">
<path d="M312.56 289.75L312.56 159.25L341.77 0L341.77 449L312.56 289.75Z" fill="#E73863"/>
</g>
<g style="mix-blend-mode:multiply">
<path d="M310.62 289.75L310.62 159.25L313.54 0L313.54 449L310.62 289.75Z" fill="#E73863"/>
</g>
</g>
</g>
<defs>
<clipPath id="clip0_1475_301">
<rect width="624" height="230" fill="white"/>
</clipPath>
<clipPath id="clip1_1475_301">
<rect width="449" height="624" fill="white" transform="translate(624) rotate(90)"/>
</clipPath>
</defs>
</svg>
